{
	"asset":{
		"generator":"Khronos glTF Blender I/O v3.6.27",
		"version":"2.0"
	},
	"extensionsUsed":[
		"KHR_materials_unlit"
	],
	"scene":0,
	"scenes":[
		{
			"name":"Scene",
			"nodes":[
				0,
				1,
				2,
				3,
				4,
				5,
				6,
				7
			]
		}
	],
	"nodes":[
		{
			"name":"Empty",
			"rotation":[
				0.5,
				0.5,
				-0.5,
				0.5
			],
			"translation":[
				-4.769415378570557,
				-1.1765371561050415,
				-0.9381538033485413
			]
		},
		{
			"mesh":0,
			"name":"Veu",
			"rotation":[
				0,
				0,
				-0.7071067690849304,
				0.7071068286895752
			],
			"scale":[
				0.6986755132675171,
				0.6986755132675171,
				0.6986755132675171
			],
			"translation":[
				0.380105584859848,
				6.199591636657715,
				0.009773969650268555
			]
		},
		{
			"mesh":1,
			"name":"Vestido",
			"scale":[
				1.0920907258987427,
				1.0920907258987427,
				1.0920907258987427
			],
			"translation":[
				-0.12066479027271271,
				0.007358551025390625,
				0.009773969650268555
			]
		},
		{
			"mesh":2,
			"name":"Gola",
			"scale":[
				1.1333507299423218,
				1.1333507299423218,
				1.1333507299423218
			],
			"translation":[
				-0.06538093090057373,
				5.06617546081543,
				0.009773850440979004
			]
		},
		{
			"mesh":3,
			"name":"Cruz",
			"rotation":[
				0,
				0,
				0.4058955907821655,
				0.9139194488525391
			],
			"scale":[
				0.013719470240175724,
				0.15024816989898682,
				0.029252955690026283
			],
			"translation":[
				0.6028777360916138,
				4.924491882324219,
				0.009773969650268555
			]
		},
		{
			"mesh":4,
			"name":"Cruz 2",
			"rotation":[
				0,
				0,
				0.4058955907821655,
				0.9139195084571838
			],
			"scale":[
				0.013719470240175724,
				0.023607829585671425,
				0.10477981716394424
			],
			"translation":[
				0.554017961025238,
				4.9686479568481445,
				0.009773969650268555
			]
		},
		{
			"mesh":5,
			"name":"Colar",
			"rotation":[
				0,
				0,
				-0.19605959951877594,
				0.9805919528007507
			],
			"scale":[
				0.4754507541656494,
				0.40028971433639526,
				0.3073479235172272
			],
			"translation":[
				0.12540292739868164,
				5.339571475982666,
				0.009773969650268555
			]
		},
		{
			"mesh":6,
			"name":"M\u00e3o Esquerda",
			"rotation":[
				-0.32271307706832886,
				-0.40174922347068787,
				0.5406163930892944,
				0.6649721264839172
			],
			"scale":[
				0.03422750532627106,
				0.03931070491671562,
				0.08735249191522598
			],
			"translation":[
				-0.40573054552078247,
				3.4457170963287354,
				-0.695544421672821
			]
		}
	],
	"materials":[
		{
			"doubleSided":true,
			"extensions":{
				"KHR_materials_unlit":{}
			},
			"name":"Material.001",
			"pbrMetallicRoughness":{
				"baseColorTexture":{
					"index":0,
					"texCoord":0
				},
				"metallicFactor":0,
				"roughnessFactor":0.9
			}
		},
		{
			"doubleSided":true,
			"name":"Material",
			"pbrMetallicRoughness":{
				"baseColorFactor":[
					0.4769895374774933,
					0.24436832964420319,
					0,
					1
				],
				"metallicFactor":0,
				"roughnessFactor":0.5
			}
		},
		{
			"doubleSided":true,
			"name":"Material.003",
			"pbrMetallicRoughness":{
				"baseColorFactor":[
					0,
					0,
					0,
					1
				],
				"metallicFactor":0,
				"roughnessFactor":0.5
			}
		},
		{
			"doubleSided":true,
			"extensions":{
				"KHR_materials_unlit":{}
			},
			"name":"Material.002",
			"pbrMetallicRoughness":{
				"baseColorTexture":{
					"index":1,
					"texCoord":0
				},
				"metallicFactor":0,
				"roughnessFactor":0.9
			}
		}
	],
	"meshes":[
		{
			"name":"Plane",
			"primitives":[
				{
					"attributes":{
						"POSITION":0,
						"NORMAL":1,
						"TEXCOORD_0":2
					},
					"indices":3,
					"material":0
				}
			]
		},
		{
			"name":"Circle.002",
			"primitives":[
				{
					"attributes":{
						"POSITION":4,
						"NORMAL":5,
						"TEXCOORD_0":6
					},
					"indices":7,
					"material":0
				}
			]
		},
		{
			"name":"Circle.003",
			"primitives":[
				{
					"attributes":{
						"POSITION":8,
						"NORMAL":9,
						"TEXCOORD_0":10
					},
					"indices":11,
					"material":0
				}
			]
		},
		{
			"name":"Cube",
			"primitives":[
				{
					"attributes":{
						"POSITION":12,
						"NORMAL":13,
						"TEXCOORD_0":14
					},
					"indices":15,
					"material":1
				}
			]
		},
		{
			"name":"Cube.001",
			"primitives":[
				{
					"attributes":{
						"POSITION":16,
						"NORMAL":17,
						"TEXCOORD_0":18
					},
					"indices":15,
					"material":1
				}
			]
		},
		{
			"name":"Circle",
			"primitives":[
				{
					"attributes":{
						"POSITION":19,
						"NORMAL":20,
						"TEXCOORD_0":21
					},
					"indices":22,
					"material":2
				}
			]
		},
		{
			"name":"Cube.003",
			"primitives":[
				{
					"attributes":{
						"POSITION":23,
						"NORMAL":24,
						"TEXCOORD_0":25
					},
					"indices":26,
					"material":3
				}
			]
		}
	],
	"textures":[
		{
			"sampler":0,
			"source":0
		},
		{
			"sampler":0,
			"source":1
		}
	],
	"images":[
		{
			"bufferView":4,
			"mimeType":"image/png",
			"name":"textura_isabella"
		},
		{
			"bufferView":28,
			"mimeType":"image/png",
			"name":"textura_aurora"
		}
	],
	"accessors":[
		{
			"bufferView":0,
			"componentType":5126,
			"count":286,
			"max":[
				2.762430429458618,
				0.08294690400362015,
				1.4942824840545654
			],
			"min":[
				-1.0722206830978394,
				-2.322157859802246,
				-1.4942824840545654
			],
			"type":"VEC3"
		},
		{
			"bufferView":1,
			"componentType":5126,
			"count":286,
			"type":"VEC3"
		},
		{
			"bufferView":2,
			"componentType":5126,
			"count":286,
			"type":"VEC2"
		},
		{
			"bufferView":3,
			"componentType":5123,
			"count":402,
			"type":"SCALAR"
		},
		{
			"bufferView":5,
			"componentType":5126,
			"count":398,
			"max":[
				1.003999948501587,
				4.875543117523193,
				1.003999948501587
			],
			"min":[
				-1.003999948501587,
				0,
				-1.003999948501587
			],
			"type":"VEC3"
		},
		{
			"bufferView":6,
			"componentType":5126,
			"count":398,
			"type":"VEC3"
		},
		{
			"bufferView":7,
			"componentType":5126,
			"count":398,
			"type":"VEC2"
		},
		{
			"bufferView":8,
			"componentType":5123,
			"count":612,
			"type":"SCALAR"
		},
		{
			"bufferView":9,
			"componentType":5126,
			"count":112,
			"max":[
				0.682848334312439,
				0.7871581315994263,
				0.5329105854034424
			],
			"min":[
				-0.5161318778991699,
				-0.24256658554077148,
				-0.5329105854034424
			],
			"type":"VEC3"
		},
		{
			"bufferView":10,
			"componentType":5126,
			"count":112,
			"type":"VEC3"
		},
		{
			"bufferView":11,
			"componentType":5126,
			"count":112,
			"type":"VEC2"
		},
		{
			"bufferView":12,
			"componentType":5123,
			"count":192,
			"type":"SCALAR"
		},
		{
			"bufferView":13,
			"componentType":5126,
			"count":24,
			"max":[
				1,
				1,
				1
			],
			"min":[
				-1,
				-1,
				-1
			],
			"type":"VEC3"
		},
		{
			"bufferView":14,
			"componentType":5126,
			"count":24,
			"type":"VEC3"
		},
		{
			"bufferView":15,
			"componentType":5126,
			"count":24,
			"type":"VEC2"
		},
		{
			"bufferView":16,
			"componentType":5123,
			"count":36,
			"type":"SCALAR"
		},
		{
			"bufferView":17,
			"componentType":5126,
			"count":24,
			"max":[
				1,
				1,
				1
			],
			"min":[
				-1,
				-1,
				-1
			],
			"type":"VEC3"
		},
		{
			"bufferView":18,
			"componentType":5126,
			"count":24,
			"type":"VEC3"
		},
		{
			"bufferView":19,
			"componentType":5126,
			"count":24,
			"type":"VEC2"
		},
		{
			"bufferView":20,
			"componentType":5126,
			"count":50,
			"max":[
				1,
				0.016854632645845413,
				1
			],
			"min":[
				-1.0059107542037964,
				-0.4073716998100281,
				-1
			],
			"type":"VEC3"
		},
		{
			"bufferView":21,
			"componentType":5126,
			"count":50,
			"type":"VEC3"
		},
		{
			"bufferView":22,
			"componentType":5126,
			"count":50,
			"type":"VEC2"
		},
		{
			"bufferView":23,
			"componentType":5123,
			"count":96,
			"type":"SCALAR"
		},
		{
			"bufferView":24,
			"componentType":5126,
			"count":176,
			"max":[
				9.382684707641602,
				1.3298629522323608,
				9.34201717376709
			],
			"min":[
				-14.318971633911133,
				-37.50413131713867,
				-2.188390016555786
			],
			"type":"VEC3"
		},
		{
			"bufferView":25,
			"componentType":5126,
			"count":176,
			"type":"VEC3"
		},
		{
			"bufferView":26,
			"componentType":5126,
			"count":176,
			"type":"VEC2"
		},
		{
			"bufferView":27,
			"componentType":5123,
			"count":264,
			"type":"SCALAR"
		}
	],
	"bufferViews":[
		{
			"buffer":0,
			"byteLength":3432,
			"byteOffset":0,
			"target":34962
		},
		{
			"buffer":0,
			"byteLength":3432,
			"byteOffset":3432,
			"target":34962
		},
		{
			"buffer":0,
			"byteLength":2288,
			"byteOffset":6864,
			"target":34962
		},
		{
			"buffer":0,
			"byteLength":804,
			"byteOffset":9152,
			"target":34963
		},
		{
			"buffer":0,
			"byteLength":3419,
			"byteOffset":9956
		},
		{
			"buffer":0,
			"byteLength":4776,
			"byteOffset":13376,
			"target":34962
		},
		{
			"buffer":0,
			"byteLength":4776,
			"byteOffset":18152,
			"target":34962
		},
		{
			"buffer":0,
			"byteLength":3184,
			"byteOffset":22928,
			"target":34962
		},
		{
			"buffer":0,
			"byteLength":1224,
			"byteOffset":26112,
			"target":34963
		},
		{
			"buffer":0,
			"byteLength":1344,
			"byteOffset":27336,
			"target":34962
		},
		{
			"buffer":0,
			"byteLength":1344,
			"byteOffset":28680,
			"target":34962
		},
		{
			"buffer":0,
			"byteLength":896,
			"byteOffset":30024,
			"target":34962
		},
		{
			"buffer":0,
			"byteLength":384,
			"byteOffset":30920,
			"target":34963
		},
		{
			"buffer":0,
			"byteLength":288,
			"byteOffset":31304,
			"target":34962
		},
		{
			"buffer":0,
			"byteLength":288,
			"byteOffset":31592,
			"target":34962
		},
		{
			"buffer":0,
			"byteLength":192,
			"byteOffset":31880,
			"target":34962
		},
		{
			"buffer":0,
			"byteLength":72,
			"byteOffset":32072,
			"target":34963
		},
		{
			"buffer":0,
			"byteLength":288,
			"byteOffset":32144,
			"target":34962
		},
		{
			"buffer":0,
			"byteLength":288,
			"byteOffset":32432,
			"target":34962
		},
		{
			"buffer":0,
			"byteLength":192,
			"byteOffset":32720,
			"target":34962
		},
		{
			"buffer":0,
			"byteLength":600,
			"byteOffset":32912,
			"target":34962
		},
		{
			"buffer":0,
			"byteLength":600,
			"byteOffset":33512,
			"target":34962
		},
		{
			"buffer":0,
			"byteLength":400,
			"byteOffset":34112,
			"target":34962
		},
		{
			"buffer":0,
			"byteLength":192,
			"byteOffset":34512,
			"target":34963
		},
		{
			"buffer":0,
			"byteLength":2112,
			"byteOffset":34704,
			"target":34962
		},
		{
			"buffer":0,
			"byteLength":2112,
			"byteOffset":36816,
			"target":34962
		},
		{
			"buffer":0,
			"byteLength":1408,
			"byteOffset":38928,
			"target":34962
		},
		{
			"buffer":0,
			"byteLength":528,
			"byteOffset":40336,
			"target":34963
		},
		{
			"buffer":0,
			"byteLength":20200,
			"byteOffset":40864
		}
	],
	"samplers":[
		{
			"magFilter":9728,
			"minFilter":9984
		}
	],
	"buffers":[
		{
			"byteLength":61064,
			"uri":"data:application/octet-stream;base64,"
		}
	]
}
