{
	"asset":{
		"generator":"Khronos glTF Blender I/O v4.0.44",
		"version":"2.0"
	},
	"extensionsUsed":[
		"KHR_materials_unlit"
	],
	"scene":0,
	"scenes":[
		{
			"name":"Scene",
			"nodes":[
				0,
				1,
				2,
				3,
				4,
				5,
				6,
				7,
				8
			]
		}
	],
	"nodes":[
		{
			"mesh":0,
			"name":"Blusa",
			"rotation":[
				0,
				0.7071068286895752,
				0,
				0.7071068286895752
			],
			"scale":[
				0.3807723820209503,
				0.4438316822052002,
				0.4438316822052002
			],
			"translation":[
				0,
				2.6497488021850586,
				-0.005706136114895344
			]
		},
		{
			"mesh":1,
			"name":"Cabe\u00e7a",
			"rotation":[
				0,
				0.7071068286895752,
				-0.7071068286895752,
				3.793077496538899e-08
			],
			"scale":[
				0.2371688187122345,
				0.2835397720336914,
				0.2371688187122345
			],
			"translation":[
				0,
				3.7493886947631836,
				0.005107863340526819
			]
		},
		{
			"mesh":2,
			"name":"Chapeu",
			"rotation":[
				0.0850469321012497,
				0.7018424272537231,
				0.08885060250759125,
				0.701633632183075
			],
			"scale":[
				0.30020177364349365,
				0.24625486135482788,
				0.3043712079524994
			],
			"translation":[
				0.00032157142413780093,
				3.894383430480957,
				0.017734469845891
			]
		},
		{
			"mesh":3,
			"name":"Perna Dir",
			"rotation":[
				0,
				0.7071068286895752,
				0,
				0.7071068286895752
			],
			"scale":[
				0.17155398428440094,
				0.17155398428440094,
				0.16091278195381165
			],
			"translation":[
				0,
				1.0215860605239868,
				-0.00025494396686553955
			]
		},
		{
			"mesh":4,
			"name":"M\u00e3o Esquerda",
			"rotation":[
				0,
				0,
				0.7071068286895752,
				0.7071068286895752
			],
			"scale":[
				0.02070087194442749,
				0.023775221779942513,
				0.05998402461409569
			],
			"translation":[
				-0.526706874370575,
				1.9549401998519897,
				-0.012688836082816124
			]
		},
		{
			"mesh":5,
			"name":"Pesco\u00e7o",
			"rotation":[
				0,
				0.7071068286895752,
				0,
				0.7071068286895752
			],
			"scale":[
				0.0523957759141922,
				0.09041471779346466,
				0.08233244717121124
			],
			"translation":[
				4.538297071121633e-05,
				3.512662410736084,
				0.003677578177303076
			]
		},
		{
			"mesh":6,
			"name":"P\u00e9 Dir",
			"rotation":[
				0,
				0.7071068286895752,
				0,
				0.7071068286895752
			],
			"scale":[
				0.16625067591667175,
				0.11023777723312378,
				0.1744970679283142
			],
			"translation":[
				0.20475468039512634,
				0.09548722952604294,
				-0.12190140783786774
			]
		},
		{
			"mesh":7,
			"name":"P\u00e9 Esq",
			"rotation":[
				-0.7071068286895752,
				0,
				-0.7071068286895752,
				0
			],
			"scale":[
				-0.16625067591667175,
				-0.11023777723312378,
				-0.1744970679283142
			],
			"translation":[
				-0.20475468039512634,
				0.09548722952604294,
				-0.12190140783786774
			]
		},
		{
			"mesh":8,
			"name":"M\u00e3o Dir",
			"rotation":[
				0,
				0,
				-0.7071068286895752,
				0.7071068286895752
			],
			"scale":[
				0.02070087194442749,
				0.023775221779942513,
				0.05998402461409569
			],
			"translation":[
				0.5130607485771179,
				1.9683924913406372,
				-0.012688801623880863
			]
		}
	],
	"materials":[
		{
			"doubleSided":true,
			"extensions":{
				"KHR_materials_unlit":{}
			},
			"name":"texturaleonardd",
			"pbrMetallicRoughness":{
				"baseColorTexture":{
					"index":0
				},
				"metallicFactor":0,
				"roughnessFactor":0.9
			}
		},
		{
			"doubleSided":true,
			"name":"Preto",
			"pbrMetallicRoughness":{
				"baseColorFactor":[
					0,
					0,
					0,
					1
				],
				"metallicFactor":0,
				"roughnessFactor":1
			}
		}
	],
	"meshes":[
		{
			"name":"Circle.001",
			"primitives":[
				{
					"attributes":{
						"POSITION":0,
						"NORMAL":1,
						"TEXCOORD_0":2
					},
					"indices":3,
					"material":0
				}
			]
		},
		{
			"name":"Plane.001",
			"primitives":[
				{
					"attributes":{
						"POSITION":4,
						"NORMAL":5,
						"TEXCOORD_0":6
					},
					"indices":7,
					"material":0
				}
			]
		},
		{
			"name":"Circle",
			"primitives":[
				{
					"attributes":{
						"POSITION":8,
						"NORMAL":9,
						"TEXCOORD_0":10
					},
					"indices":11,
					"material":0
				},
				{
					"attributes":{
						"POSITION":12,
						"NORMAL":13,
						"TEXCOORD_0":14
					},
					"indices":15,
					"material":1
				}
			]
		},
		{
			"name":"Circle.002",
			"primitives":[
				{
					"attributes":{
						"POSITION":16,
						"NORMAL":17,
						"TEXCOORD_0":18
					},
					"indices":19,
					"material":0
				}
			]
		},
		{
			"name":"Cube.010",
			"primitives":[
				{
					"attributes":{
						"POSITION":20,
						"NORMAL":21,
						"TEXCOORD_0":22
					},
					"indices":23,
					"material":0
				}
			]
		},
		{
			"name":"Cube.015",
			"primitives":[
				{
					"attributes":{
						"POSITION":24,
						"NORMAL":25,
						"TEXCOORD_0":26
					},
					"indices":27,
					"material":0
				}
			]
		},
		{
			"name":"Cube",
			"primitives":[
				{
					"attributes":{
						"POSITION":28,
						"NORMAL":29,
						"TEXCOORD_0":30
					},
					"indices":31,
					"material":0
				}
			]
		},
		{
			"name":"Cube.023",
			"primitives":[
				{
					"attributes":{
						"POSITION":32,
						"NORMAL":33,
						"TEXCOORD_0":34
					},
					"indices":31,
					"material":0
				}
			]
		},
		{
			"name":"Cube.024",
			"primitives":[
				{
					"attributes":{
						"POSITION":35,
						"NORMAL":36,
						"TEXCOORD_0":37
					},
					"indices":38,
					"material":0
				}
			]
		}
	],
	"textures":[
		{
			"sampler":0,
			"source":0
		}
	],
	"images":[
		{
			"mimeType":"image/png",
			"name":"textura_leonardd",
			"uri":"textura_leonardd.png"
		}
	],
	"accessors":[
		{
			"bufferView":0,
			"componentType":5126,
			"count":378,
			"max":[
				1.046976923942566,
				1.818500280380249,
				1.3974733352661133
			],
			"min":[
				-0.9646706581115723,
				-1.7685706615447998,
				-1.4286444187164307
			],
			"type":"VEC3"
		},
		{
			"bufferView":1,
			"componentType":5126,
			"count":378,
			"type":"VEC3"
		},
		{
			"bufferView":2,
			"componentType":5126,
			"count":378,
			"type":"VEC2"
		},
		{
			"bufferView":3,
			"componentType":5123,
			"count":588,
			"type":"SCALAR"
		},
		{
			"bufferView":4,
			"componentType":5126,
			"count":228,
			"max":[
				1.0210273265838623,
				0.8527030348777771,
				1.0889180898666382
			],
			"min":[
				-1.0210273265838623,
				-0.7078562378883362,
				-0.9805036783218384
			],
			"type":"VEC3"
		},
		{
			"bufferView":5,
			"componentType":5126,
			"count":228,
			"type":"VEC3"
		},
		{
			"bufferView":6,
			"componentType":5126,
			"count":228,
			"type":"VEC2"
		},
		{
			"bufferView":7,
			"componentType":5123,
			"count":300,
			"type":"SCALAR"
		},
		{
			"bufferView":8,
			"componentType":5126,
			"count":464,
			"max":[
				1.0009067058563232,
				1.068359613418579,
				1.0129646062850952
			],
			"min":[
				-1.2272124290466309,
				-0.6063754558563232,
				-1.0205161571502686
			],
			"type":"VEC3"
		},
		{
			"bufferView":9,
			"componentType":5126,
			"count":464,
			"type":"VEC3"
		},
		{
			"bufferView":10,
			"componentType":5126,
			"count":464,
			"type":"VEC2"
		},
		{
			"bufferView":11,
			"componentType":5123,
			"count":672,
			"type":"SCALAR"
		},
		{
			"bufferView":12,
			"componentType":5126,
			"count":64,
			"max":[
				1.0764421224594116,
				-0.2586791217327118,
				1.0746952295303345
			],
			"min":[
				-1.2753880023956299,
				-0.6063754558563232,
				-1.0811717510223389
			],
			"type":"VEC3"
		},
		{
			"bufferView":13,
			"componentType":5126,
			"count":64,
			"type":"VEC3"
		},
		{
			"bufferView":14,
			"componentType":5126,
			"count":64,
			"type":"VEC2"
		},
		{
			"bufferView":15,
			"componentType":5123,
			"count":96,
			"type":"SCALAR"
		},
		{
			"bufferView":16,
			"componentType":5126,
			"count":400,
			"max":[
				1.2960424423217773,
				5.065258026123047,
				2.440195083618164
			],
			"min":[
				-1.2960426807403564,
				-4.798648357391357,
				-2.440195083618164
			],
			"type":"VEC3"
		},
		{
			"bufferView":17,
			"componentType":5126,
			"count":400,
			"type":"VEC3"
		},
		{
			"bufferView":18,
			"componentType":5126,
			"count":400,
			"type":"VEC2"
		},
		{
			"bufferView":19,
			"componentType":5123,
			"count":612,
			"type":"SCALAR"
		},
		{
			"bufferView":20,
			"componentType":5126,
			"count":88,
			"max":[
				7.9420928955078125,
				1.8494924306869507,
				1.9339141845703125
			],
			"min":[
				-7.3768768310546875,
				-2.0564677715301514,
				-1.584338903427124
			],
			"type":"VEC3"
		},
		{
			"bufferView":21,
			"componentType":5126,
			"count":88,
			"type":"VEC3"
		},
		{
			"bufferView":22,
			"componentType":5126,
			"count":88,
			"type":"VEC2"
		},
		{
			"bufferView":23,
			"componentType":5123,
			"count":132,
			"type":"SCALAR"
		},
		{
			"bufferView":24,
			"componentType":5126,
			"count":48,
			"max":[
				1.5735572576522827,
				1.0180455446243286,
				0.9970849752426147
			],
			"min":[
				-1.5093592405319214,
				-0.7926005721092224,
				-1.0029150247573853
			],
			"type":"VEC3"
		},
		{
			"bufferView":25,
			"componentType":5126,
			"count":48,
			"type":"VEC3"
		},
		{
			"bufferView":26,
			"componentType":5126,
			"count":48,
			"type":"VEC2"
		},
		{
			"bufferView":27,
			"componentType":5123,
			"count":84,
			"type":"SCALAR"
		},
		{
			"bufferView":28,
			"componentType":5126,
			"count":34,
			"max":[
				1.869381070137024,
				1.0320205688476562,
				0.7130908966064453
			],
			"min":[
				-1.5109938383102417,
				-0.8013626337051392,
				-0.7130908966064453
			],
			"type":"VEC3"
		},
		{
			"bufferView":29,
			"componentType":5126,
			"count":34,
			"type":"VEC3"
		},
		{
			"bufferView":30,
			"componentType":5126,
			"count":34,
			"type":"VEC2"
		},
		{
			"bufferView":31,
			"componentType":5123,
			"count":60,
			"type":"SCALAR"
		},
		{
			"bufferView":32,
			"componentType":5126,
			"count":34,
			"max":[
				1.869381070137024,
				1.0320205688476562,
				0.7130908966064453
			],
			"min":[
				-1.5109938383102417,
				-0.8013626337051392,
				-0.7130908966064453
			],
			"type":"VEC3"
		},
		{
			"bufferView":33,
			"componentType":5126,
			"count":34,
			"type":"VEC3"
		},
		{
			"bufferView":34,
			"componentType":5126,
			"count":34,
			"type":"VEC2"
		},
		{
			"bufferView":35,
			"componentType":5126,
			"count":88,
			"max":[
				7.376884460449219,
				1.8494924306869507,
				1.933914303779602
			],
			"min":[
				-7.942085266113281,
				-2.0564677715301514,
				-1.584338903427124
			],
			"type":"VEC3"
		},
		{
			"bufferView":36,
			"componentType":5126,
			"count":88,
			"type":"VEC3"
		},
		{
			"bufferView":37,
			"componentType":5126,
			"count":88,
			"type":"VEC2"
		},
		{
			"bufferView":38,
			"componentType":5123,
			"count":132,
			"type":"SCALAR"
		}
	],
	"bufferViews":[
		{
			"buffer":0,
			"byteLength":4536,
			"byteOffset":0,
			"target":34962
		},
		{
			"buffer":0,
			"byteLength":4536,
			"byteOffset":4536,
			"target":34962
		},
		{
			"buffer":0,
			"byteLength":3024,
			"byteOffset":9072,
			"target":34962
		},
		{
			"buffer":0,
			"byteLength":1176,
			"byteOffset":12096,
			"target":34963
		},
		{
			"buffer":0,
			"byteLength":2736,
			"byteOffset":13272,
			"target":34962
		},
		{
			"buffer":0,
			"byteLength":2736,
			"byteOffset":16008,
			"target":34962
		},
		{
			"buffer":0,
			"byteLength":1824,
			"byteOffset":18744,
			"target":34962
		},
		{
			"buffer":0,
			"byteLength":600,
			"byteOffset":20568,
			"target":34963
		},
		{
			"buffer":0,
			"byteLength":5568,
			"byteOffset":21168,
			"target":34962
		},
		{
			"buffer":0,
			"byteLength":5568,
			"byteOffset":26736,
			"target":34962
		},
		{
			"buffer":0,
			"byteLength":3712,
			"byteOffset":32304,
			"target":34962
		},
		{
			"buffer":0,
			"byteLength":1344,
			"byteOffset":36016,
			"target":34963
		},
		{
			"buffer":0,
			"byteLength":768,
			"byteOffset":37360,
			"target":34962
		},
		{
			"buffer":0,
			"byteLength":768,
			"byteOffset":38128,
			"target":34962
		},
		{
			"buffer":0,
			"byteLength":512,
			"byteOffset":38896,
			"target":34962
		},
		{
			"buffer":0,
			"byteLength":192,
			"byteOffset":39408,
			"target":34963
		},
		{
			"buffer":0,
			"byteLength":4800,
			"byteOffset":39600,
			"target":34962
		},
		{
			"buffer":0,
			"byteLength":4800,
			"byteOffset":44400,
			"target":34962
		},
		{
			"buffer":0,
			"byteLength":3200,
			"byteOffset":49200,
			"target":34962
		},
		{
			"buffer":0,
			"byteLength":1224,
			"byteOffset":52400,
			"target":34963
		},
		{
			"buffer":0,
			"byteLength":1056,
			"byteOffset":53624,
			"target":34962
		},
		{
			"buffer":0,
			"byteLength":1056,
			"byteOffset":54680,
			"target":34962
		},
		{
			"buffer":0,
			"byteLength":704,
			"byteOffset":55736,
			"target":34962
		},
		{
			"buffer":0,
			"byteLength":264,
			"byteOffset":56440,
			"target":34963
		},
		{
			"buffer":0,
			"byteLength":576,
			"byteOffset":56704,
			"target":34962
		},
		{
			"buffer":0,
			"byteLength":576,
			"byteOffset":57280,
			"target":34962
		},
		{
			"buffer":0,
			"byteLength":384,
			"byteOffset":57856,
			"target":34962
		},
		{
			"buffer":0,
			"byteLength":168,
			"byteOffset":58240,
			"target":34963
		},
		{
			"buffer":0,
			"byteLength":408,
			"byteOffset":58408,
			"target":34962
		},
		{
			"buffer":0,
			"byteLength":408,
			"byteOffset":58816,
			"target":34962
		},
		{
			"buffer":0,
			"byteLength":272,
			"byteOffset":59224,
			"target":34962
		},
		{
			"buffer":0,
			"byteLength":120,
			"byteOffset":59496,
			"target":34963
		},
		{
			"buffer":0,
			"byteLength":408,
			"byteOffset":59616,
			"target":34962
		},
		{
			"buffer":0,
			"byteLength":408,
			"byteOffset":60024,
			"target":34962
		},
		{
			"buffer":0,
			"byteLength":272,
			"byteOffset":60432,
			"target":34962
		},
		{
			"buffer":0,
			"byteLength":1056,
			"byteOffset":60704,
			"target":34962
		},
		{
			"buffer":0,
			"byteLength":1056,
			"byteOffset":61760,
			"target":34962
		},
		{
			"buffer":0,
			"byteLength":704,
			"byteOffset":62816,
			"target":34962
		},
		{
			"buffer":0,
			"byteLength":264,
			"byteOffset":63520,
			"target":34963
		}
	],
	"samplers":[
		{
			"magFilter":9728,
			"minFilter":9984
		}
	],
	"buffers":[
		{
			"byteLength":63784,
			"uri":"modeloleonardd.bin"
		}
	]
}
