{
    "asset" : {
        "generator" : "Khronos glTF Blender I/O v1.7.33",
        "version" : "2.0"
    },
    "extensionsUsed" : [
        "KHR_materials_unlit"
    ],
    "scene" : 0,
    "scenes" : [
        {
            "name" : "Scene",
            "nodes" : [
                0,
                1,
                2,
                3,
                4,
                5,
                6,
                7,
                8
            ]
        }
    ],
    "nodes" : [
        {
            "mesh" : 0,
            "name" : "Tronco",
            "rotation" : [
                0,
                -0.7071068286895752,
                0,
                0.7071068286895752
            ],
            "scale" : [
                0.5274050235748291,
                0.5917686820030212,
                0.4317856431007385
            ],
            "translation" : [
                -0.4885149598121643,
                4.601221561431885,
                -0.005244255065917969
            ]
        },
        {
            "mesh" : 1,
            "name" : "M\u00e3o Esquerda",
            "rotation" : [
                -0.3877563178539276,
                -0.5913079380989075,
                0.3877563178539276,
                0.5913078784942627
            ],
            "scale" : [
                0.03772763907909393,
                0.04467429593205452,
                0.10864909738302231
            ],
            "translation" : [
                -0.558373749256134,
                3.7545907497406006,
                -1.4172395467758179
            ]
        },
        {
            "mesh" : 2,
            "name" : "Cal\u00e7a Esquerda",
            "rotation" : [
                0.02533571608364582,
                -0.706652820110321,
                -0.02533571422100067,
                0.7066527605056763
            ],
            "scale" : [
                0.22641558945178986,
                1.131962537765503,
                0.1853679120540619
            ],
            "translation" : [
                -0.5535115599632263,
                2.2192511558532715,
                -0.4841419756412506
            ]
        },
        {
            "mesh" : 3,
            "name" : "Bra\u00e7o Esquerdo",
            "rotation" : [
                0.17719775438308716,
                -0.6845443248748779,
                -0.17719770967960358,
                0.6845443844795227
            ],
            "scale" : [
                0.1818007379770279,
                0.4547089636325836,
                0.27075761556625366
            ],
            "translation" : [
                -0.5420697331428528,
                4.947315692901611,
                -0.8450639247894287
            ]
        },
        {
            "mesh" : 4,
            "name" : "Antebra\u00e7o Esquerdo",
            "rotation" : [
                0.14393272995948792,
                -0.692302942276001,
                -0.14393268525600433,
                0.692302942276001
            ],
            "scale" : [
                0.13311047852039337,
                0.5011236071586609,
                0.25805482268333435
            ],
            "translation" : [
                -0.5413036346435547,
                4.223221778869629,
                -1.1790766716003418
            ]
        },
        {
            "mesh" : 5,
            "name" : "Cabe\u00e7a",
            "rotation" : [
                0.5000000596046448,
                0.4999999701976776,
                -0.4999999701976776,
                0.5
            ],
            "scale" : [
                0.5981323719024658,
                0.5981323719024658,
                0.5981323719024658
            ],
            "translation" : [
                -0.20805083215236664,
                6.409330368041992,
                0.001238502562046051
            ]
        },
        {
            "mesh" : 6,
            "name" : "Oculos",
            "rotation" : [
                0,
                0,
                -0.7071067690849304,
                0.7071068286895752
            ],
            "scale" : [
                0.18809562921524048,
                0.18809562921524048,
                0.18809562921524048
            ],
            "translation" : [
                -0.20805083215236664,
                6.533901214599609,
                -0.24790218472480774
            ]
        },
        {
            "mesh" : 7,
            "name" : "Pesco\u00e7o",
            "scale" : [
                0.14762204885482788,
                0.23521362245082855,
                0.18570928275585175
            ],
            "translation" : [
                -0.575137197971344,
                5.7250189781188965,
                -0.009427964687347412
            ]
        },
        {
            "mesh" : 8,
            "name" : "Sapato",
            "scale" : [
                0.17308880388736725,
                0.24984657764434814,
                0.24984657764434814
            ],
            "translation" : [
                -0.5422236323356628,
                0.28977489471435547,
                -0.6221797466278076
            ]
        }
    ],
    "materials" : [
        {
            "doubleSided" : true,
            "extensions" : {
                "KHR_materials_unlit" : {}
            },
            "name" : "texturapsicologo",
            "pbrMetallicRoughness" : {
                "baseColorTexture" : {
                    "index" : 0
                },
                "metallicFactor" : 0,
                "roughnessFactor" : 0.9
            }
        }
    ],
    "meshes" : [
        {
            "name" : "Cube.002",
            "primitives" : [
                {
                    "attributes" : {
                        "POSITION" : 0,
                        "NORMAL" : 1,
                        "TEXCOORD_0" : 2
                    },
                    "indices" : 3,
                    "material" : 0
                }
            ]
        },
        {
            "name" : "Cube.003",
            "primitives" : [
                {
                    "attributes" : {
                        "POSITION" : 4,
                        "NORMAL" : 5,
                        "TEXCOORD_0" : 6
                    },
                    "indices" : 7,
                    "material" : 0
                }
            ]
        },
        {
            "name" : "Cylinder.018",
            "primitives" : [
                {
                    "attributes" : {
                        "POSITION" : 8,
                        "NORMAL" : 9,
                        "TEXCOORD_0" : 10
                    },
                    "indices" : 11,
                    "material" : 0
                }
            ]
        },
        {
            "name" : "Cylinder.001",
            "primitives" : [
                {
                    "attributes" : {
                        "POSITION" : 12,
                        "NORMAL" : 13,
                        "TEXCOORD_0" : 14
                    },
                    "indices" : 15,
                    "material" : 0
                }
            ]
        },
        {
            "name" : "Cylinder.002",
            "primitives" : [
                {
                    "attributes" : {
                        "POSITION" : 16,
                        "NORMAL" : 17,
                        "TEXCOORD_0" : 18
                    },
                    "indices" : 19,
                    "material" : 0
                }
            ]
        },
        {
            "name" : "Plane.001",
            "primitives" : [
                {
                    "attributes" : {
                        "POSITION" : 20,
                        "NORMAL" : 21,
                        "TEXCOORD_0" : 22
                    },
                    "indices" : 23,
                    "material" : 0
                }
            ]
        },
        {
            "name" : "Circle",
            "primitives" : [
                {
                    "attributes" : {
                        "POSITION" : 24,
                        "NORMAL" : 25,
                        "TEXCOORD_0" : 26
                    },
                    "indices" : 27,
                    "material" : 0
                }
            ]
        },
        {
            "name" : "Cube",
            "primitives" : [
                {
                    "attributes" : {
                        "POSITION" : 28,
                        "NORMAL" : 29,
                        "TEXCOORD_0" : 30
                    },
                    "indices" : 31,
                    "material" : 0
                }
            ]
        },
        {
            "name" : "Cube.001",
            "primitives" : [
                {
                    "attributes" : {
                        "POSITION" : 32,
                        "NORMAL" : 33,
                        "TEXCOORD_0" : 34
                    },
                    "indices" : 35,
                    "material" : 0
                }
            ]
        }
    ],
    "textures" : [
        {
            "sampler" : 0,
            "source" : 0
        }
    ],
    "images" : [
        {
            "bufferView" : 4,
            "mimeType" : "image/png",
            "name" : "textura_psicologo"
        }
    ],
    "accessors" : [
        {
            "bufferView" : 0,
            "componentType" : 5126,
            "count" : 291,
            "max" : [
                1.402768850326538,
                1.8247218132019043,
                1
            ],
            "min" : [
                -1.402768850326538,
                -2.104036808013916,
                -0.9733678102493286
            ],
            "type" : "VEC3"
        },
        {
            "bufferView" : 1,
            "componentType" : 5126,
            "count" : 291,
            "type" : "VEC3"
        },
        {
            "bufferView" : 2,
            "componentType" : 5126,
            "count" : 291,
            "type" : "VEC2"
        },
        {
            "bufferView" : 3,
            "componentType" : 5123,
            "count" : 492,
            "type" : "SCALAR"
        },
        {
            "bufferView" : 5,
            "componentType" : 5126,
            "count" : 176,
            "max" : [
                31.382522583007812,
                1.3298629522323608,
                1.3298630714416504
            ],
            "min" : [
                -14.318971633911133,
                -66.2320556640625,
                -2.1883907318115234
            ],
            "type" : "VEC3"
        },
        {
            "bufferView" : 6,
            "componentType" : 5126,
            "count" : 176,
            "type" : "VEC3"
        },
        {
            "bufferView" : 7,
            "componentType" : 5126,
            "count" : 176,
            "type" : "VEC2"
        },
        {
            "bufferView" : 8,
            "componentType" : 5123,
            "count" : 264,
            "type" : "SCALAR"
        },
        {
            "bufferView" : 9,
            "componentType" : 5126,
            "count" : 172,
            "max" : [
                6.276340484619141,
                1.1674913167953491,
                1.645365595817566
            ],
            "min" : [
                -1.4246577024459839,
                -1.756219744682312,
                -1.7618008852005005
            ],
            "type" : "VEC3"
        },
        {
            "bufferView" : 10,
            "componentType" : 5126,
            "count" : 172,
            "type" : "VEC3"
        },
        {
            "bufferView" : 11,
            "componentType" : 5126,
            "count" : 172,
            "type" : "VEC2"
        },
        {
            "bufferView" : 12,
            "componentType" : 5123,
            "count" : 264,
            "type" : "SCALAR"
        },
        {
            "bufferView" : 13,
            "componentType" : 5126,
            "count" : 124,
            "max" : [
                10.200798988342285,
                2.9393022060394287,
                1.613236904144287
            ],
            "min" : [
                -1.3971039056777954,
                -1,
                -1.613236665725708
            ],
            "type" : "VEC3"
        },
        {
            "bufferView" : 14,
            "componentType" : 5126,
            "count" : 124,
            "type" : "VEC3"
        },
        {
            "bufferView" : 15,
            "componentType" : 5126,
            "count" : 124,
            "type" : "VEC2"
        },
        {
            "bufferView" : 16,
            "componentType" : 5123,
            "count" : 192,
            "type" : "SCALAR"
        },
        {
            "bufferView" : 17,
            "componentType" : 5126,
            "count" : 62,
            "max" : [
                1.3971041440963745,
                1.5107524394989014,
                1.613236665725708
            ],
            "min" : [
                -1.3971039056777954,
                -1,
                -1.613236665725708
            ],
            "type" : "VEC3"
        },
        {
            "bufferView" : 18,
            "componentType" : 5126,
            "count" : 62,
            "type" : "VEC3"
        },
        {
            "bufferView" : 19,
            "componentType" : 5126,
            "count" : 62,
            "type" : "VEC2"
        },
        {
            "bufferView" : 20,
            "componentType" : 5123,
            "count" : 96,
            "type" : "SCALAR"
        },
        {
            "bufferView" : 21,
            "componentType" : 5126,
            "count" : 448,
            "max" : [
                0.9774865508079529,
                0.2086692750453949,
                1
            ],
            "min" : [
                -0.9774865508079529,
                -1.5738481283187866,
                -1.1861834526062012
            ],
            "type" : "VEC3"
        },
        {
            "bufferView" : 22,
            "componentType" : 5126,
            "count" : 448,
            "type" : "VEC3"
        },
        {
            "bufferView" : 23,
            "componentType" : 5126,
            "count" : 448,
            "type" : "VEC2"
        },
        {
            "bufferView" : 24,
            "componentType" : 5123,
            "count" : 666,
            "type" : "SCALAR"
        },
        {
            "bufferView" : 25,
            "componentType" : 5126,
            "count" : 36,
            "max" : [
                1,
                0.048630692064762115,
                4.215127944946289
            ],
            "min" : [
                -1,
                -3.6368327140808105,
                -1.5660438537597656
            ],
            "type" : "VEC3"
        },
        {
            "bufferView" : 26,
            "componentType" : 5126,
            "count" : 36,
            "type" : "VEC3"
        },
        {
            "bufferView" : 27,
            "componentType" : 5126,
            "count" : 36,
            "type" : "VEC2"
        },
        {
            "bufferView" : 28,
            "componentType" : 5123,
            "count" : 72,
            "type" : "SCALAR"
        },
        {
            "bufferView" : 29,
            "componentType" : 5126,
            "count" : 24,
            "max" : [
                1,
                1,
                1
            ],
            "min" : [
                -1,
                -1,
                -1
            ],
            "type" : "VEC3"
        },
        {
            "bufferView" : 30,
            "componentType" : 5126,
            "count" : 24,
            "type" : "VEC3"
        },
        {
            "bufferView" : 31,
            "componentType" : 5126,
            "count" : 24,
            "type" : "VEC2"
        },
        {
            "bufferView" : 32,
            "componentType" : 5123,
            "count" : 36,
            "type" : "SCALAR"
        },
        {
            "bufferView" : 33,
            "componentType" : 5126,
            "count" : 106,
            "max" : [
                4.570745468139648,
                0.6948674917221069,
                5.972884178161621
            ],
            "min" : [
                -0.9073221683502197,
                -1,
                -1.0343694686889648
            ],
            "type" : "VEC3"
        },
        {
            "bufferView" : 34,
            "componentType" : 5126,
            "count" : 106,
            "type" : "VEC3"
        },
        {
            "bufferView" : 35,
            "componentType" : 5126,
            "count" : 106,
            "type" : "VEC2"
        },
        {
            "bufferView" : 36,
            "componentType" : 5123,
            "count" : 168,
            "type" : "SCALAR"
        }
    ],
    "bufferViews" : [
        {
            "buffer" : 0,
            "byteLength" : 3492,
            "byteOffset" : 0
        },
        {
            "buffer" : 0,
            "byteLength" : 3492,
            "byteOffset" : 3492
        },
        {
            "buffer" : 0,
            "byteLength" : 2328,
            "byteOffset" : 6984
        },
        {
            "buffer" : 0,
            "byteLength" : 984,
            "byteOffset" : 9312
        },
        {
            "buffer" : 0,
            "byteLength" : 12574,
            "byteOffset" : 10296
        },
        {
            "buffer" : 0,
            "byteLength" : 2112,
            "byteOffset" : 22872
        },
        {
            "buffer" : 0,
            "byteLength" : 2112,
            "byteOffset" : 24984
        },
        {
            "buffer" : 0,
            "byteLength" : 1408,
            "byteOffset" : 27096
        },
        {
            "buffer" : 0,
            "byteLength" : 528,
            "byteOffset" : 28504
        },
        {
            "buffer" : 0,
            "byteLength" : 2064,
            "byteOffset" : 29032
        },
        {
            "buffer" : 0,
            "byteLength" : 2064,
            "byteOffset" : 31096
        },
        {
            "buffer" : 0,
            "byteLength" : 1376,
            "byteOffset" : 33160
        },
        {
            "buffer" : 0,
            "byteLength" : 528,
            "byteOffset" : 34536
        },
        {
            "buffer" : 0,
            "byteLength" : 1488,
            "byteOffset" : 35064
        },
        {
            "buffer" : 0,
            "byteLength" : 1488,
            "byteOffset" : 36552
        },
        {
            "buffer" : 0,
            "byteLength" : 992,
            "byteOffset" : 38040
        },
        {
            "buffer" : 0,
            "byteLength" : 384,
            "byteOffset" : 39032
        },
        {
            "buffer" : 0,
            "byteLength" : 744,
            "byteOffset" : 39416
        },
        {
            "buffer" : 0,
            "byteLength" : 744,
            "byteOffset" : 40160
        },
        {
            "buffer" : 0,
            "byteLength" : 496,
            "byteOffset" : 40904
        },
        {
            "buffer" : 0,
            "byteLength" : 192,
            "byteOffset" : 41400
        },
        {
            "buffer" : 0,
            "byteLength" : 5376,
            "byteOffset" : 41592
        },
        {
            "buffer" : 0,
            "byteLength" : 5376,
            "byteOffset" : 46968
        },
        {
            "buffer" : 0,
            "byteLength" : 3584,
            "byteOffset" : 52344
        },
        {
            "buffer" : 0,
            "byteLength" : 1332,
            "byteOffset" : 55928
        },
        {
            "buffer" : 0,
            "byteLength" : 432,
            "byteOffset" : 57260
        },
        {
            "buffer" : 0,
            "byteLength" : 432,
            "byteOffset" : 57692
        },
        {
            "buffer" : 0,
            "byteLength" : 288,
            "byteOffset" : 58124
        },
        {
            "buffer" : 0,
            "byteLength" : 144,
            "byteOffset" : 58412
        },
        {
            "buffer" : 0,
            "byteLength" : 288,
            "byteOffset" : 58556
        },
        {
            "buffer" : 0,
            "byteLength" : 288,
            "byteOffset" : 58844
        },
        {
            "buffer" : 0,
            "byteLength" : 192,
            "byteOffset" : 59132
        },
        {
            "buffer" : 0,
            "byteLength" : 72,
            "byteOffset" : 59324
        },
        {
            "buffer" : 0,
            "byteLength" : 1272,
            "byteOffset" : 59396
        },
        {
            "buffer" : 0,
            "byteLength" : 1272,
            "byteOffset" : 60668
        },
        {
            "buffer" : 0,
            "byteLength" : 848,
            "byteOffset" : 61940
        },
        {
            "buffer" : 0,
            "byteLength" : 336,
            "byteOffset" : 62788
        }
    ],
    "samplers" : [
        {
            "magFilter" : 9728,
            "minFilter" : 9984
        }
    ],
    "buffers" : [
        {
            "byteLength" : 63124,
            "uri" : "data:application/octet-stream;base64,"
        }
    ]
}
