{
    "asset" : {
        "generator" : "Khronos glTF Blender I/O v3.4.50",
        "version" : "2.0"
    },
    "extensionsUsed" : [
        "KHR_materials_unlit"
    ],
    "scene" : 0,
    "scenes" : [
        {
            "name" : "Scene",
            "nodes" : [
                0,
                1,
                2,
                3,
                4,
                5,
                6,
                7,
                8
            ]
        }
    ],
    "nodes" : [
        {
            "mesh" : 0,
            "name" : "Tronco",
            "rotation" : [
                0,
                -0.7071068286895752,
                0,
                0.7071068286895752
            ],
            "scale" : [
                0.6079552173614502,
                0.6821490526199341,
                0.49773192405700684
            ],
            "translation" : [
                -0.49155935645103455,
                5.7041449546813965,
                0.07556378841400146
            ]
        },
        {
            "mesh" : 1,
            "name" : "M\u00e3o Esquerda",
            "rotation" : [
                -0.38775634765625,
                -0.5913079977035522,
                0.3877563774585724,
                0.5913078784942627
            ],
            "scale" : [
                0.04348975792527199,
                0.05149736627936363,
                0.12524299323558807
            ],
            "translation" : [
                -0.5720876455307007,
                4.728208541870117,
                -1.5520844459533691
            ]
        },
        {
            "mesh" : 2,
            "name" : "Cal\u00e7a Esquerda",
            "rotation" : [
                0.025335712358355522,
                -0.7066527605056763,
                -0.025335710495710373,
                0.7066527605056763
            ],
            "scale" : [
                0.2609958350658417,
                1.3811432123184204,
                0.2136790156364441
            ],
            "translation" : [
                -0.5664828419685364,
                2.901215076446533,
                -0.47647562623023987
            ]
        },
        {
            "mesh" : 3,
            "name" : "Bra\u00e7o Esquerdo",
            "rotation" : [
                0.17719773948192596,
                -0.6845443844795227,
                -0.17719770967960358,
                0.6845443844795227
            ],
            "scale" : [
                0.20956702530384064,
                0.5241563320159912,
                0.3121102452278137
            ],
            "translation" : [
                -0.5532935261726379,
                6.045935153961182,
                -0.8925209045410156
            ]
        },
        {
            "mesh" : 4,
            "name" : "Antebra\u00e7o Esquerdo",
            "rotation" : [
                0.14393272995948792,
                -0.692302942276001,
                -0.14393267035484314,
                0.692302942276001
            ],
            "scale" : [
                0.15344035625457764,
                0.5776598453521729,
                0.29746735095977783
            ],
            "translation" : [
                -0.5524104237556458,
                5.268413543701172,
                -1.2775471210479736
            ]
        },
        {
            "mesh" : 5,
            "name" : "Cabe\u00e7a",
            "rotation" : [
                0.5,
                0.5,
                -0.5,
                0.5000000596046448
            ],
            "scale" : [
                0.6894846558570862,
                0.6894846558570862,
                0.6894846558570862
            ],
            "translation" : [
                -0.16826015710830688,
                7.78840446472168,
                0.08303666114807129
            ]
        },
        {
            "mesh" : 6,
            "name" : "Oculos",
            "rotation" : [
                0,
                0,
                -0.7071068286895752,
                0.7071068286895752
            ],
            "scale" : [
                0.21682332456111908,
                0.21682332456111908,
                0.21682332456111908
            ],
            "translation" : [
                -0.16826015710830688,
                7.874838829040527,
                -0.2041551172733307
            ]
        },
        {
            "mesh" : 7,
            "name" : "Pesco\u00e7o",
            "scale" : [
                0.17016825079917908,
                0.27113762497901917,
                0.21407252550125122
            ],
            "translation" : [
                -0.591411292552948,
                6.942416191101074,
                0.07074111700057983
            ]
        },
        {
            "mesh" : 8,
            "name" : "Sapato",
            "scale" : [
                0.19952450692653656,
                0.28800544142723083,
                0.28800544142723083
            ],
            "translation" : [
                -0.5534709095954895,
                0.6770515441894531,
                -0.6355957984924316
            ]
        }
    ],
    "materials" : [
        {
            "doubleSided" : true,
            "extensions" : {
                "KHR_materials_unlit" : {}
            },
            "name" : "texturapsicologo",
            "pbrMetallicRoughness" : {
                "baseColorTexture" : {
                    "index" : 0,
                    "texCoord" : 0
                },
                "metallicFactor" : 0,
                "roughnessFactor" : 0.9
            }
        }
    ],
    "meshes" : [
        {
            "name" : "Cube.002",
            "primitives" : [
                {
                    "attributes" : {
                        "POSITION" : 0,
                        "TEXCOORD_0" : 1,
                        "NORMAL" : 2
                    },
                    "indices" : 3,
                    "material" : 0
                }
            ]
        },
        {
            "name" : "Cube.003",
            "primitives" : [
                {
                    "attributes" : {
                        "POSITION" : 4,
                        "TEXCOORD_0" : 5,
                        "NORMAL" : 6
                    },
                    "indices" : 7,
                    "material" : 0
                }
            ]
        },
        {
            "name" : "Cylinder.018",
            "primitives" : [
                {
                    "attributes" : {
                        "POSITION" : 8,
                        "TEXCOORD_0" : 9,
                        "NORMAL" : 10
                    },
                    "indices" : 11,
                    "material" : 0
                }
            ]
        },
        {
            "name" : "Cylinder.001",
            "primitives" : [
                {
                    "attributes" : {
                        "POSITION" : 12,
                        "TEXCOORD_0" : 13,
                        "NORMAL" : 14
                    },
                    "indices" : 15,
                    "material" : 0
                }
            ]
        },
        {
            "name" : "Cylinder.002",
            "primitives" : [
                {
                    "attributes" : {
                        "POSITION" : 16,
                        "TEXCOORD_0" : 17,
                        "NORMAL" : 18
                    },
                    "indices" : 15,
                    "material" : 0
                }
            ]
        },
        {
            "name" : "Plane.001",
            "primitives" : [
                {
                    "attributes" : {
                        "POSITION" : 19,
                        "TEXCOORD_0" : 20,
                        "NORMAL" : 21
                    },
                    "indices" : 22,
                    "material" : 0
                }
            ]
        },
        {
            "name" : "Circle",
            "primitives" : [
                {
                    "attributes" : {
                        "POSITION" : 23,
                        "TEXCOORD_0" : 24,
                        "NORMAL" : 25
                    },
                    "indices" : 26,
                    "material" : 0
                }
            ]
        },
        {
            "name" : "Cube",
            "primitives" : [
                {
                    "attributes" : {
                        "POSITION" : 27,
                        "TEXCOORD_0" : 28,
                        "NORMAL" : 29
                    },
                    "indices" : 30,
                    "material" : 0
                }
            ]
        },
        {
            "name" : "Cube.001",
            "primitives" : [
                {
                    "attributes" : {
                        "POSITION" : 31,
                        "TEXCOORD_0" : 32,
                        "NORMAL" : 33
                    },
                    "indices" : 34,
                    "material" : 0
                }
            ]
        }
    ],
    "textures" : [
        {
            "sampler" : 0,
            "source" : 0
        }
    ],
    "images" : [
        {
            "bufferView" : 4,
            "mimeType" : "image/png",
            "name" : "textura_psicologo"
        }
    ],
    "accessors" : [
        {
            "bufferView" : 0,
            "componentType" : 5126,
            "count" : 291,
            "max" : [
                1.402768850326538,
                1.8247218132019043,
                1
            ],
            "min" : [
                -1.402768850326538,
                -2.104036808013916,
                -0.9733678102493286
            ],
            "type" : "VEC3"
        },
        {
            "bufferView" : 1,
            "componentType" : 5126,
            "count" : 291,
            "type" : "VEC2"
        },
        {
            "bufferView" : 2,
            "componentType" : 5126,
            "count" : 291,
            "type" : "VEC3"
        },
        {
            "bufferView" : 3,
            "componentType" : 5123,
            "count" : 492,
            "type" : "SCALAR"
        },
        {
            "bufferView" : 5,
            "componentType" : 5126,
            "count" : 176,
            "max" : [
                31.382518768310547,
                1.3298629522323608,
                1.3298630714416504
            ],
            "min" : [
                -14.318971633911133,
                -66.23204803466797,
                -2.1883904933929443
            ],
            "type" : "VEC3"
        },
        {
            "bufferView" : 6,
            "componentType" : 5126,
            "count" : 176,
            "type" : "VEC2"
        },
        {
            "bufferView" : 7,
            "componentType" : 5126,
            "count" : 176,
            "type" : "VEC3"
        },
        {
            "bufferView" : 8,
            "componentType" : 5123,
            "count" : 264,
            "type" : "SCALAR"
        },
        {
            "bufferView" : 9,
            "componentType" : 5126,
            "count" : 172,
            "max" : [
                6.276340961456299,
                1.1674915552139282,
                1.645365595817566
            ],
            "min" : [
                -1.4246577024459839,
                -1.756219744682312,
                -1.7618008852005005
            ],
            "type" : "VEC3"
        },
        {
            "bufferView" : 10,
            "componentType" : 5126,
            "count" : 172,
            "type" : "VEC2"
        },
        {
            "bufferView" : 11,
            "componentType" : 5126,
            "count" : 172,
            "type" : "VEC3"
        },
        {
            "bufferView" : 12,
            "componentType" : 5123,
            "count" : 264,
            "type" : "SCALAR"
        },
        {
            "bufferView" : 13,
            "componentType" : 5126,
            "count" : 124,
            "max" : [
                10.200798988342285,
                2.9393022060394287,
                1.613236904144287
            ],
            "min" : [
                -1.3971039056777954,
                -1,
                -1.613236665725708
            ],
            "type" : "VEC3"
        },
        {
            "bufferView" : 14,
            "componentType" : 5126,
            "count" : 124,
            "type" : "VEC2"
        },
        {
            "bufferView" : 15,
            "componentType" : 5126,
            "count" : 124,
            "type" : "VEC3"
        },
        {
            "bufferView" : 16,
            "componentType" : 5123,
            "count" : 192,
            "type" : "SCALAR"
        },
        {
            "bufferView" : 17,
            "componentType" : 5126,
            "count" : 124,
            "max" : [
                18.927845001220703,
                3.1180644035339355,
                1.6132371425628662
            ],
            "min" : [
                -1.3971039056777954,
                -1,
                -1.613236665725708
            ],
            "type" : "VEC3"
        },
        {
            "bufferView" : 18,
            "componentType" : 5126,
            "count" : 124,
            "type" : "VEC2"
        },
        {
            "bufferView" : 19,
            "componentType" : 5126,
            "count" : 124,
            "type" : "VEC3"
        },
        {
            "bufferView" : 20,
            "componentType" : 5126,
            "count" : 448,
            "max" : [
                0.9774865508079529,
                0.2086692750453949,
                1
            ],
            "min" : [
                -0.9774865508079529,
                -1.5738481283187866,
                -1.1861834526062012
            ],
            "type" : "VEC3"
        },
        {
            "bufferView" : 21,
            "componentType" : 5126,
            "count" : 448,
            "type" : "VEC2"
        },
        {
            "bufferView" : 22,
            "componentType" : 5126,
            "count" : 448,
            "type" : "VEC3"
        },
        {
            "bufferView" : 23,
            "componentType" : 5123,
            "count" : 666,
            "type" : "SCALAR"
        },
        {
            "bufferView" : 24,
            "componentType" : 5126,
            "count" : 36,
            "max" : [
                1,
                0.048630692064762115,
                4.215127944946289
            ],
            "min" : [
                -1,
                -3.6368327140808105,
                -1.5660438537597656
            ],
            "type" : "VEC3"
        },
        {
            "bufferView" : 25,
            "componentType" : 5126,
            "count" : 36,
            "type" : "VEC2"
        },
        {
            "bufferView" : 26,
            "componentType" : 5126,
            "count" : 36,
            "type" : "VEC3"
        },
        {
            "bufferView" : 27,
            "componentType" : 5123,
            "count" : 72,
            "type" : "SCALAR"
        },
        {
            "bufferView" : 28,
            "componentType" : 5126,
            "count" : 24,
            "max" : [
                1,
                1,
                1
            ],
            "min" : [
                -1,
                -1,
                -1
            ],
            "type" : "VEC3"
        },
        {
            "bufferView" : 29,
            "componentType" : 5126,
            "count" : 24,
            "type" : "VEC2"
        },
        {
            "bufferView" : 30,
            "componentType" : 5126,
            "count" : 24,
            "type" : "VEC3"
        },
        {
            "bufferView" : 31,
            "componentType" : 5123,
            "count" : 36,
            "type" : "SCALAR"
        },
        {
            "bufferView" : 32,
            "componentType" : 5126,
            "count" : 106,
            "max" : [
                4.570745468139648,
                0.6948674917221069,
                5.972884178161621
            ],
            "min" : [
                -0.9073221683502197,
                -1,
                -1.0343694686889648
            ],
            "type" : "VEC3"
        },
        {
            "bufferView" : 33,
            "componentType" : 5126,
            "count" : 106,
            "type" : "VEC2"
        },
        {
            "bufferView" : 34,
            "componentType" : 5126,
            "count" : 106,
            "type" : "VEC3"
        },
        {
            "bufferView" : 35,
            "componentType" : 5123,
            "count" : 168,
            "type" : "SCALAR"
        }
    ],
    "bufferViews" : [
        {
            "buffer" : 0,
            "byteLength" : 3492,
            "byteOffset" : 0,
            "target" : 34962
        },
        {
            "buffer" : 0,
            "byteLength" : 2328,
            "byteOffset" : 3492,
            "target" : 34962
        },
        {
            "buffer" : 0,
            "byteLength" : 3492,
            "byteOffset" : 5820,
            "target" : 34962
        },
        {
            "buffer" : 0,
            "byteLength" : 984,
            "byteOffset" : 9312,
            "target" : 34963
        },
        {
            "buffer" : 0,
            "byteLength" : 12574,
            "byteOffset" : 10296
        },
        {
            "buffer" : 0,
            "byteLength" : 2112,
            "byteOffset" : 22872,
            "target" : 34962
        },
        {
            "buffer" : 0,
            "byteLength" : 1408,
            "byteOffset" : 24984,
            "target" : 34962
        },
        {
            "buffer" : 0,
            "byteLength" : 2112,
            "byteOffset" : 26392,
            "target" : 34962
        },
        {
            "buffer" : 0,
            "byteLength" : 528,
            "byteOffset" : 28504,
            "target" : 34963
        },
        {
            "buffer" : 0,
            "byteLength" : 2064,
            "byteOffset" : 29032,
            "target" : 34962
        },
        {
            "buffer" : 0,
            "byteLength" : 1376,
            "byteOffset" : 31096,
            "target" : 34962
        },
        {
            "buffer" : 0,
            "byteLength" : 2064,
            "byteOffset" : 32472,
            "target" : 34962
        },
        {
            "buffer" : 0,
            "byteLength" : 528,
            "byteOffset" : 34536,
            "target" : 34963
        },
        {
            "buffer" : 0,
            "byteLength" : 1488,
            "byteOffset" : 35064,
            "target" : 34962
        },
        {
            "buffer" : 0,
            "byteLength" : 992,
            "byteOffset" : 36552,
            "target" : 34962
        },
        {
            "buffer" : 0,
            "byteLength" : 1488,
            "byteOffset" : 37544,
            "target" : 34962
        },
        {
            "buffer" : 0,
            "byteLength" : 384,
            "byteOffset" : 39032,
            "target" : 34963
        },
        {
            "buffer" : 0,
            "byteLength" : 1488,
            "byteOffset" : 39416,
            "target" : 34962
        },
        {
            "buffer" : 0,
            "byteLength" : 992,
            "byteOffset" : 40904,
            "target" : 34962
        },
        {
            "buffer" : 0,
            "byteLength" : 1488,
            "byteOffset" : 41896,
            "target" : 34962
        },
        {
            "buffer" : 0,
            "byteLength" : 5376,
            "byteOffset" : 43384,
            "target" : 34962
        },
        {
            "buffer" : 0,
            "byteLength" : 3584,
            "byteOffset" : 48760,
            "target" : 34962
        },
        {
            "buffer" : 0,
            "byteLength" : 5376,
            "byteOffset" : 52344,
            "target" : 34962
        },
        {
            "buffer" : 0,
            "byteLength" : 1332,
            "byteOffset" : 57720,
            "target" : 34963
        },
        {
            "buffer" : 0,
            "byteLength" : 432,
            "byteOffset" : 59052,
            "target" : 34962
        },
        {
            "buffer" : 0,
            "byteLength" : 288,
            "byteOffset" : 59484,
            "target" : 34962
        },
        {
            "buffer" : 0,
            "byteLength" : 432,
            "byteOffset" : 59772,
            "target" : 34962
        },
        {
            "buffer" : 0,
            "byteLength" : 144,
            "byteOffset" : 60204,
            "target" : 34963
        },
        {
            "buffer" : 0,
            "byteLength" : 288,
            "byteOffset" : 60348,
            "target" : 34962
        },
        {
            "buffer" : 0,
            "byteLength" : 192,
            "byteOffset" : 60636,
            "target" : 34962
        },
        {
            "buffer" : 0,
            "byteLength" : 288,
            "byteOffset" : 60828,
            "target" : 34962
        },
        {
            "buffer" : 0,
            "byteLength" : 72,
            "byteOffset" : 61116,
            "target" : 34963
        },
        {
            "buffer" : 0,
            "byteLength" : 1272,
            "byteOffset" : 61188,
            "target" : 34962
        },
        {
            "buffer" : 0,
            "byteLength" : 848,
            "byteOffset" : 62460,
            "target" : 34962
        },
        {
            "buffer" : 0,
            "byteLength" : 1272,
            "byteOffset" : 63308,
            "target" : 34962
        },
        {
            "buffer" : 0,
            "byteLength" : 336,
            "byteOffset" : 64580,
            "target" : 34963
        }
    ],
    "samplers" : [
        {
            "magFilter" : 9728,
            "minFilter" : 9984
        }
    ],
    "buffers" : [
        {
            "byteLength" : 64916,
            "uri" : "data:application/octet-stream;base64,"
        }
    ]
}
