{
	"asset":{
		"generator":"Khronos glTF Blender I/O v3.6.27",
		"version":"2.0"
	},
	"extensionsUsed":[
		"KHR_materials_unlit"
	],
	"scene":0,
	"scenes":[
		{
			"name":"Scene",
			"nodes":[
				0,
				1,
				2,
				3,
				4,
				5,
				6,
				7,
				8,
				9,
				10,
				11
			]
		}
	],
	"nodes":[
		{
			"name":"Empty",
			"rotation":[
				0.5,
				0.5,
				-0.5,
				0.4999999701976776
			],
			"scale":[
				2.4809651374816895,
				2.4809651374816895,
				2.4809651374816895
			],
			"translation":[
				-1.8207924365997314,
				2.5181217193603516,
				2.403885841369629
			]
		},
		{
			"mesh":0,
			"name":"Cabe\u00e7a",
			"rotation":[
				0.5,
				0.5,
				-0.5,
				0.5000000596046448
			],
			"scale":[
				0.6627010703086853,
				0.6627010703086853,
				0.6627010703086853
			],
			"translation":[
				-0.14573150873184204,
				7.215577125549316,
				-0.004545833915472031
			]
		},
		{
			"mesh":1,
			"name":"Chapeu",
			"scale":[
				0.6042777299880981,
				0.7161054015159607,
				0.7161054015159607
			],
			"translation":[
				-0.655994713306427,
				7.475241661071777,
				0.0037223659455776215
			]
		},
		{
			"mesh":2,
			"name":"Tronco",
			"rotation":[
				0,
				-0.7071068286895752,
				0,
				0.7071068286895752
			],
			"scale":[
				0.7314347624778748,
				0.6790077686309814,
				0.4954397976398468
			],
			"translation":[
				-0.3694745898246765,
				5.215236663818359,
				0.0067015141248703
			]
		},
		{
			"mesh":3,
			"name":"Sobretudo",
			"rotation":[
				0,
				-0.7071068286895752,
				0,
				0.7071068286895752
			],
			"scale":[
				0.8748252391815186,
				0.812120258808136,
				0.5925658941268921
			],
			"translation":[
				-0.36629998683929443,
				5.116886138916016,
				0.0067015141248703
			]
		},
		{
			"mesh":4,
			"name":"Ponta Esq",
			"rotation":[
				0,
				-0.7071068286895752,
				0,
				0.7071068286895752
			],
			"scale":[
				0.05869821831583977,
				0.06741567701101303,
				0.17008736729621887
			],
			"translation":[
				-0.440441370010376,
				-1.0789644718170166,
				0.0067015141248703
			]
		},
		{
			"mesh":5,
			"name":"Pesco\u00e7o",
			"scale":[
				0.11476462334394455,
				0.18790967762470245,
				0.1803361475467682
			],
			"translation":[
				-0.3928963541984558,
				6.540980339050293,
				0.006698239594697952
			]
		},
		{
			"mesh":6,
			"name":"Palma Esq",
			"rotation":[
				0,
				-0.7071068286895752,
				0,
				0.7071068286895752
			],
			"scale":[
				0.05869821831583977,
				0.06741567701101303,
				0.17008736729621887
			],
			"translation":[
				-0.440441370010376,
				-1.0789644718170166,
				0.0067015141248703
			]
		},
		{
			"mesh":7,
			"name":"Meio Esq",
			"rotation":[
				0,
				-0.7071068286895752,
				0,
				0.7071068286895752
			],
			"scale":[
				0.05869821831583977,
				0.06741567701101303,
				0.17008736729621887
			],
			"translation":[
				-0.440441370010376,
				-1.0789644718170166,
				0.0067015141248703
			]
		},
		{
			"mesh":8,
			"name":"Ded\u00e3o Esq",
			"rotation":[
				0,
				-0.7071068286895752,
				0,
				0.7071068286895752
			],
			"scale":[
				0.05869821831583977,
				0.06741567701101303,
				0.17008736729621887
			],
			"translation":[
				-0.440441370010376,
				-1.0789644718170166,
				0.0067015141248703
			]
		},
		{
			"mesh":9,
			"name":"P\u00e9 Esq",
			"rotation":[
				0,
				0,
				-1,
				0
			],
			"scale":[
				-0.32648277282714844,
				-0.2164846807718277,
				-0.34267690777778625
			],
			"translation":[
				-0.1712007075548172,
				0.19420146942138672,
				-0.469433456659317
			]
		},
		{
			"mesh":10,
			"name":"Perna Dir",
			"scale":[
				0.3306786119937897,
				0.3513168692588806,
				0.36633065342903137
			],
			"translation":[
				-0.4100898504257202,
				2.0982487201690674,
				-0.005462471395730972
			]
		}
	],
	"materials":[
		{
			"doubleSided":true,
			"extensions":{
				"KHR_materials_unlit":{}
			},
			"name":"texturaassassino",
			"pbrMetallicRoughness":{
				"baseColorTexture":{
					"index":0,
					"texCoord":0
				},
				"metallicFactor":0,
				"roughnessFactor":0.9
			}
		}
	],
	"meshes":[
		{
			"name":"Plane.001",
			"primitives":[
				{
					"attributes":{
						"POSITION":0,
						"NORMAL":1,
						"TEXCOORD_0":2
					},
					"indices":3,
					"material":0
				}
			]
		},
		{
			"name":"Sphere",
			"primitives":[
				{
					"attributes":{
						"POSITION":4,
						"NORMAL":5,
						"TEXCOORD_0":6
					},
					"indices":7,
					"material":0
				}
			]
		},
		{
			"name":"Cube.002",
			"primitives":[
				{
					"attributes":{
						"POSITION":8,
						"NORMAL":9,
						"TEXCOORD_0":10
					},
					"indices":11,
					"material":0
				}
			]
		},
		{
			"name":"Cube.005",
			"primitives":[
				{
					"attributes":{
						"POSITION":12,
						"NORMAL":13,
						"TEXCOORD_0":14
					},
					"indices":15,
					"material":0
				}
			]
		},
		{
			"name":"Cube.007",
			"primitives":[
				{
					"attributes":{
						"POSITION":16,
						"NORMAL":17,
						"TEXCOORD_0":18
					},
					"indices":19
				}
			]
		},
		{
			"name":"Cube.003",
			"primitives":[
				{
					"attributes":{
						"POSITION":20,
						"NORMAL":21,
						"TEXCOORD_0":22
					},
					"indices":23,
					"material":0
				}
			]
		},
		{
			"name":"Cube.009",
			"primitives":[
				{
					"attributes":{
						"POSITION":24,
						"NORMAL":25,
						"TEXCOORD_0":26
					},
					"indices":27
				}
			]
		},
		{
			"name":"Cube.008",
			"primitives":[
				{
					"attributes":{
						"POSITION":28,
						"NORMAL":29,
						"TEXCOORD_0":30
					},
					"indices":31
				}
			]
		},
		{
			"name":"Cube.001",
			"primitives":[
				{
					"attributes":{
						"POSITION":32,
						"NORMAL":33,
						"TEXCOORD_0":34
					},
					"indices":35
				}
			]
		},
		{
			"name":"Cube.023",
			"primitives":[
				{
					"attributes":{
						"POSITION":36,
						"NORMAL":37,
						"TEXCOORD_0":38
					},
					"indices":39,
					"material":0
				}
			]
		},
		{
			"name":"Circle.002",
			"primitives":[
				{
					"attributes":{
						"POSITION":40,
						"NORMAL":41,
						"TEXCOORD_0":42
					},
					"indices":43,
					"material":0
				}
			]
		}
	],
	"textures":[
		{
			"sampler":0,
			"source":0
		}
	],
	"images":[
		{
			"bufferView":4,
			"mimeType":"image/png",
			"name":"textura_assassino"
		}
	],
	"accessors":[
		{
			"bufferView":0,
			"componentType":5126,
			"count":198,
			"max":[
				0.8465988636016846,
				0.15575401484966278,
				1
			],
			"min":[
				-0.8465988636016846,
				-1.5165232419967651,
				-1.0694217681884766
			],
			"type":"VEC3"
		},
		{
			"bufferView":1,
			"componentType":5126,
			"count":198,
			"type":"VEC3"
		},
		{
			"bufferView":2,
			"componentType":5126,
			"count":198,
			"type":"VEC2"
		},
		{
			"bufferView":3,
			"componentType":5123,
			"count":258,
			"type":"SCALAR"
		},
		{
			"bufferView":5,
			"componentType":5126,
			"count":464,
			"max":[
				1.0757699012756348,
				1.082573413848877,
				1.0833860635757446
			],
			"min":[
				-1.0770386457443237,
				-1.5784903764724731,
				-1.0833860635757446
			],
			"type":"VEC3"
		},
		{
			"bufferView":6,
			"componentType":5126,
			"count":464,
			"type":"VEC3"
		},
		{
			"bufferView":7,
			"componentType":5126,
			"count":464,
			"type":"VEC2"
		},
		{
			"bufferView":8,
			"componentType":5123,
			"count":684,
			"type":"SCALAR"
		},
		{
			"bufferView":9,
			"componentType":5126,
			"count":219,
			"max":[
				1.160962700843811,
				1.7689611911773682,
				1.0318050384521484
			],
			"min":[
				-1.160962700843811,
				-2.1631436347961426,
				-1
			],
			"type":"VEC3"
		},
		{
			"bufferView":10,
			"componentType":5126,
			"count":219,
			"type":"VEC3"
		},
		{
			"bufferView":11,
			"componentType":5126,
			"count":219,
			"type":"VEC2"
		},
		{
			"bufferView":12,
			"componentType":5123,
			"count":336,
			"type":"SCALAR"
		},
		{
			"bufferView":13,
			"componentType":5126,
			"count":512,
			"max":[
				3.850693464279175,
				1.7110931873321533,
				1.1347057819366455
			],
			"min":[
				-3.850693464279175,
				-4.2696852684021,
				-1.2971141338348389
			],
			"type":"VEC3"
		},
		{
			"bufferView":14,
			"componentType":5126,
			"count":512,
			"type":"VEC3"
		},
		{
			"bufferView":15,
			"componentType":5126,
			"count":512,
			"type":"VEC2"
		},
		{
			"bufferView":16,
			"componentType":5123,
			"count":768,
			"type":"SCALAR"
		},
		{
			"bufferView":17,
			"componentType":5126,
			"count":40,
			"max":[
				70.44304656982422,
				106.5035629272461,
				1.3702325820922852
			],
			"min":[
				-70.44304656982422,
				103.08026123046875,
				-1.2894935607910156
			],
			"type":"VEC3"
		},
		{
			"bufferView":18,
			"componentType":5126,
			"count":40,
			"type":"VEC3"
		},
		{
			"bufferView":19,
			"componentType":5126,
			"count":40,
			"type":"VEC2"
		},
		{
			"bufferView":20,
			"componentType":5123,
			"count":60,
			"type":"SCALAR"
		},
		{
			"bufferView":21,
			"componentType":5126,
			"count":72,
			"max":[
				1.1590396165847778,
				0.7928326725959778,
				1
			],
			"min":[
				-1.9238768815994263,
				-1,
				-1
			],
			"type":"VEC3"
		},
		{
			"bufferView":22,
			"componentType":5126,
			"count":72,
			"type":"VEC3"
		},
		{
			"bufferView":23,
			"componentType":5126,
			"count":72,
			"type":"VEC2"
		},
		{
			"bufferView":24,
			"componentType":5123,
			"count":120,
			"type":"SCALAR"
		},
		{
			"bufferView":25,
			"componentType":5126,
			"count":32,
			"max":[
				61.837547302246094,
				106.98622131347656,
				1.3702325820922852
			],
			"min":[
				-61.837547302246094,
				104.32649230957031,
				-1.2894935607910156
			],
			"type":"VEC3"
		},
		{
			"bufferView":26,
			"componentType":5126,
			"count":32,
			"type":"VEC3"
		},
		{
			"bufferView":27,
			"componentType":5126,
			"count":32,
			"type":"VEC2"
		},
		{
			"bufferView":28,
			"componentType":5123,
			"count":48,
			"type":"SCALAR"
		},
		{
			"bufferView":29,
			"componentType":5126,
			"count":32,
			"max":[
				66.63347625732422,
				106.98622131347656,
				1.3702325820922852
			],
			"min":[
				-66.63347625732422,
				104.32649993896484,
				-1.2894935607910156
			],
			"type":"VEC3"
		},
		{
			"bufferView":30,
			"componentType":5126,
			"count":32,
			"type":"VEC3"
		},
		{
			"bufferView":31,
			"componentType":5126,
			"count":32,
			"type":"VEC2"
		},
		{
			"bufferView":32,
			"componentType":5123,
			"count":48,
			"type":"SCALAR"
		},
		{
			"bufferView":33,
			"componentType":5126,
			"count":64,
			"max":[
				66.16188049316406,
				106.98622131347656,
				-0.9596303701400757
			],
			"min":[
				-66.16188049316406,
				103.50726318359375,
				-2.1480202674865723
			],
			"type":"VEC3"
		},
		{
			"bufferView":34,
			"componentType":5126,
			"count":64,
			"type":"VEC3"
		},
		{
			"bufferView":35,
			"componentType":5126,
			"count":64,
			"type":"VEC2"
		},
		{
			"bufferView":36,
			"componentType":5123,
			"count":96,
			"type":"SCALAR"
		},
		{
			"bufferView":37,
			"componentType":5126,
			"count":68,
			"max":[
				1.869382381439209,
				1.0320205688476562,
				0.7130908966064453
			],
			"min":[
				-1.5109938383102417,
				-0.8013626337051392,
				-3.4210124015808105
			],
			"type":"VEC3"
		},
		{
			"bufferView":38,
			"componentType":5126,
			"count":68,
			"type":"VEC3"
		},
		{
			"bufferView":39,
			"componentType":5126,
			"count":68,
			"type":"VEC2"
		},
		{
			"bufferView":40,
			"componentType":5123,
			"count":120,
			"type":"SCALAR"
		},
		{
			"bufferView":41,
			"componentType":5126,
			"count":400,
			"max":[
				1.2960424423217773,
				5.065258026123047,
				2.440195083618164
			],
			"min":[
				-1.2960426807403564,
				-4.798648357391357,
				-2.440195083618164
			],
			"type":"VEC3"
		},
		{
			"bufferView":42,
			"componentType":5126,
			"count":400,
			"type":"VEC3"
		},
		{
			"bufferView":43,
			"componentType":5126,
			"count":400,
			"type":"VEC2"
		},
		{
			"bufferView":44,
			"componentType":5123,
			"count":612,
			"type":"SCALAR"
		}
	],
	"bufferViews":[
		{
			"buffer":0,
			"byteLength":2376,
			"byteOffset":0,
			"target":34962
		},
		{
			"buffer":0,
			"byteLength":2376,
			"byteOffset":2376,
			"target":34962
		},
		{
			"buffer":0,
			"byteLength":1584,
			"byteOffset":4752,
			"target":34962
		},
		{
			"buffer":0,
			"byteLength":516,
			"byteOffset":6336,
			"target":34963
		},
		{
			"buffer":0,
			"byteLength":41430,
			"byteOffset":6852
		},
		{
			"buffer":0,
			"byteLength":5568,
			"byteOffset":48284,
			"target":34962
		},
		{
			"buffer":0,
			"byteLength":5568,
			"byteOffset":53852,
			"target":34962
		},
		{
			"buffer":0,
			"byteLength":3712,
			"byteOffset":59420,
			"target":34962
		},
		{
			"buffer":0,
			"byteLength":1368,
			"byteOffset":63132,
			"target":34963
		},
		{
			"buffer":0,
			"byteLength":2628,
			"byteOffset":64500,
			"target":34962
		},
		{
			"buffer":0,
			"byteLength":2628,
			"byteOffset":67128,
			"target":34962
		},
		{
			"buffer":0,
			"byteLength":1752,
			"byteOffset":69756,
			"target":34962
		},
		{
			"buffer":0,
			"byteLength":672,
			"byteOffset":71508,
			"target":34963
		},
		{
			"buffer":0,
			"byteLength":6144,
			"byteOffset":72180,
			"target":34962
		},
		{
			"buffer":0,
			"byteLength":6144,
			"byteOffset":78324,
			"target":34962
		},
		{
			"buffer":0,
			"byteLength":4096,
			"byteOffset":84468,
			"target":34962
		},
		{
			"buffer":0,
			"byteLength":1536,
			"byteOffset":88564,
			"target":34963
		},
		{
			"buffer":0,
			"byteLength":480,
			"byteOffset":90100,
			"target":34962
		},
		{
			"buffer":0,
			"byteLength":480,
			"byteOffset":90580,
			"target":34962
		},
		{
			"buffer":0,
			"byteLength":320,
			"byteOffset":91060,
			"target":34962
		},
		{
			"buffer":0,
			"byteLength":120,
			"byteOffset":91380,
			"target":34963
		},
		{
			"buffer":0,
			"byteLength":864,
			"byteOffset":91500,
			"target":34962
		},
		{
			"buffer":0,
			"byteLength":864,
			"byteOffset":92364,
			"target":34962
		},
		{
			"buffer":0,
			"byteLength":576,
			"byteOffset":93228,
			"target":34962
		},
		{
			"buffer":0,
			"byteLength":240,
			"byteOffset":93804,
			"target":34963
		},
		{
			"buffer":0,
			"byteLength":384,
			"byteOffset":94044,
			"target":34962
		},
		{
			"buffer":0,
			"byteLength":384,
			"byteOffset":94428,
			"target":34962
		},
		{
			"buffer":0,
			"byteLength":256,
			"byteOffset":94812,
			"target":34962
		},
		{
			"buffer":0,
			"byteLength":96,
			"byteOffset":95068,
			"target":34963
		},
		{
			"buffer":0,
			"byteLength":384,
			"byteOffset":95164,
			"target":34962
		},
		{
			"buffer":0,
			"byteLength":384,
			"byteOffset":95548,
			"target":34962
		},
		{
			"buffer":0,
			"byteLength":256,
			"byteOffset":95932,
			"target":34962
		},
		{
			"buffer":0,
			"byteLength":96,
			"byteOffset":96188,
			"target":34963
		},
		{
			"buffer":0,
			"byteLength":768,
			"byteOffset":96284,
			"target":34962
		},
		{
			"buffer":0,
			"byteLength":768,
			"byteOffset":97052,
			"target":34962
		},
		{
			"buffer":0,
			"byteLength":512,
			"byteOffset":97820,
			"target":34962
		},
		{
			"buffer":0,
			"byteLength":192,
			"byteOffset":98332,
			"target":34963
		},
		{
			"buffer":0,
			"byteLength":816,
			"byteOffset":98524,
			"target":34962
		},
		{
			"buffer":0,
			"byteLength":816,
			"byteOffset":99340,
			"target":34962
		},
		{
			"buffer":0,
			"byteLength":544,
			"byteOffset":100156,
			"target":34962
		},
		{
			"buffer":0,
			"byteLength":240,
			"byteOffset":100700,
			"target":34963
		},
		{
			"buffer":0,
			"byteLength":4800,
			"byteOffset":100940,
			"target":34962
		},
		{
			"buffer":0,
			"byteLength":4800,
			"byteOffset":105740,
			"target":34962
		},
		{
			"buffer":0,
			"byteLength":3200,
			"byteOffset":110540,
			"target":34962
		},
		{
			"buffer":0,
			"byteLength":1224,
			"byteOffset":113740,
			"target":34963
		}
	],
	"samplers":[
		{
			"magFilter":9728,
			"minFilter":9984
		}
	],
	"buffers":[
		{
			"byteLength":114964,
			"uri":"data:application/octet-stream;base64,"
		}
	]
}
