{
	"asset":{
		"generator":"Khronos glTF Blender I/O v3.6.27",
		"version":"2.0"
	},
	"extensionsUsed":[
		"KHR_materials_unlit"
	],
	"scene":0,
	"scenes":[
		{
			"name":"Scene",
			"nodes":[
				0,
				1,
				2,
				3,
				4,
				5,
				6,
				7
			]
		}
	],
	"nodes":[
		{
			"name":"Empty",
			"rotation":[
				0.5,
				0.5,
				-0.5,
				0.4999999701976776
			],
			"scale":[
				1.1566402912139893,
				1.1566402912139893,
				1.1566402912139893
			],
			"translation":[
				-13.590045928955078,
				0,
				-1.040427565574646
			]
		},
		{
			"mesh":0,
			"name":"Cabe\u00e7a",
			"rotation":[
				0,
				0,
				0.7071068286895752,
				0.7071068286895752
			],
			"scale":[
				0.5589037537574768,
				0.5589037537574768,
				0.5589037537574768
			],
			"translation":[
				0.6249071955680847,
				6.859651565551758,
				-0.08110004663467407
			]
		},
		{
			"name":"Empty.001",
			"rotation":[
				0.5,
				0.5,
				-0.5,
				0.4999999701976776
			],
			"scale":[
				3.750617027282715,
				3.750617027282715,
				3.750617027282715
			],
			"translation":[
				-9.681373596191406,
				-4.15184211730957,
				-3.4031999111175537
			]
		},
		{
			"mesh":1,
			"name":"Vestido",
			"scale":[
				2.1306827068328857,
				2.1306827068328857,
				2.1306827068328857
			],
			"translation":[
				0.04135194048285484,
				4.143932819366455,
				-0.08110000938177109
			]
		},
		{
			"mesh":2,
			"name":"M\u00e3o Esquerda",
			"rotation":[
				-0.34502166509628296,
				-0.47256603837013245,
				0.5406360626220703,
				0.6044452786445618
			],
			"scale":[
				0.03810281306505203,
				0.04376158118247986,
				0.11040890216827393
			],
			"translation":[
				-0.268349826335907,
				3.6306307315826416,
				-1.2542513608932495
			]
		},
		{
			"mesh":3,
			"name":"M\u00e3o Direita",
			"rotation":[
				-0.47256597876548767,
				0.3450216054916382,
				-0.6044453382492065,
				0.5406360626220703
			],
			"scale":[
				-0.03810281306505203,
				-0.043761592358350754,
				-0.11040890216827393
			],
			"translation":[
				-0.268349826335907,
				3.6306307315826416,
				1.0994421243667603
			]
		},
		{
			"mesh":4,
			"name":"Pesco\u00e7o",
			"scale":[
				1.7968900203704834,
				1.7968900203704834,
				1.7968900203704834
			],
			"translation":[
				0.022850478067994118,
				6.363883972167969,
				-0.08110000193119049
			]
		},
		{
			"mesh":5,
			"name":"Cube",
			"scale":[
				0.43003329634666443,
				0.17311051487922668,
				0.23378001153469086
			],
			"translation":[
				0.15728026628494263,
				0.283683180809021,
				-0.5583125352859497
			]
		}
	],
	"materials":[
		{
			"doubleSided":true,
			"extensions":{
				"KHR_materials_unlit":{}
			},
			"name":"Material.001",
			"pbrMetallicRoughness":{
				"baseColorTexture":{
					"index":0,
					"texCoord":0
				},
				"metallicFactor":0,
				"roughnessFactor":0.9
			}
		},
		{
			"doubleSided":true,
			"extensions":{
				"KHR_materials_unlit":{}
			},
			"name":"textura",
			"pbrMetallicRoughness":{
				"baseColorTexture":{
					"index":1,
					"texCoord":0
				},
				"metallicFactor":0,
				"roughnessFactor":0.9
			}
		},
		{
			"doubleSided":true,
			"name":"Material",
			"pbrMetallicRoughness":{
				"baseColorTexture":{
					"index":2
				},
				"metallicFactor":0,
				"roughnessFactor":0.5
			}
		}
	],
	"meshes":[
		{
			"name":"Plane",
			"primitives":[
				{
					"attributes":{
						"POSITION":0,
						"NORMAL":1,
						"TEXCOORD_0":2
					},
					"indices":3,
					"material":0
				}
			]
		},
		{
			"name":"Circle.001",
			"primitives":[
				{
					"attributes":{
						"POSITION":4,
						"NORMAL":5,
						"TEXCOORD_0":6
					},
					"indices":7,
					"material":0
				}
			]
		},
		{
			"name":"Cube.003",
			"primitives":[
				{
					"attributes":{
						"POSITION":8,
						"NORMAL":9,
						"TEXCOORD_0":10
					},
					"indices":11,
					"material":0
				}
			]
		},
		{
			"name":"Cube.001",
			"primitives":[
				{
					"attributes":{
						"POSITION":12,
						"NORMAL":13,
						"TEXCOORD_0":14
					},
					"indices":11,
					"material":1
				}
			]
		},
		{
			"name":"Circle.002",
			"primitives":[
				{
					"attributes":{
						"POSITION":15,
						"NORMAL":16,
						"TEXCOORD_0":17
					},
					"indices":18,
					"material":0
				}
			]
		},
		{
			"name":"Cube",
			"primitives":[
				{
					"attributes":{
						"POSITION":19,
						"NORMAL":20,
						"TEXCOORD_0":21
					},
					"indices":22,
					"material":2
				}
			]
		}
	],
	"textures":[
		{
			"sampler":0,
			"source":0
		},
		{
			"sampler":0,
			"source":1
		},
		{
			"sampler":1,
			"source":0
		}
	],
	"images":[
		{
			"bufferView":4,
			"mimeType":"image/png",
			"name":"textura_aurora"
		},
		{
			"bufferView":16,
			"mimeType":"image/png",
			"name":"textura_gaspard"
		}
	],
	"accessors":[
		{
			"bufferView":0,
			"componentType":5126,
			"count":613,
			"max":[
				1.497329831123352,
				2.311485767364502,
				1.3086531162261963
			],
			"min":[
				-2.927921772003174,
				-0.1276693344116211,
				-1.2328875064849854
			],
			"type":"VEC3"
		},
		{
			"bufferView":1,
			"componentType":5126,
			"count":613,
			"type":"VEC3"
		},
		{
			"bufferView":2,
			"componentType":5126,
			"count":613,
			"type":"VEC2"
		},
		{
			"bufferView":3,
			"componentType":5123,
			"count":1047,
			"type":"SCALAR"
		},
		{
			"bufferView":5,
			"componentType":5126,
			"count":456,
			"max":[
				0.9910783171653748,
				0.9934700727462769,
				1
			],
			"min":[
				-1.0089216232299805,
				-1.693859577178955,
				-1
			],
			"type":"VEC3"
		},
		{
			"bufferView":6,
			"componentType":5126,
			"count":456,
			"type":"VEC3"
		},
		{
			"bufferView":7,
			"componentType":5126,
			"count":456,
			"type":"VEC2"
		},
		{
			"bufferView":8,
			"componentType":5123,
			"count":690,
			"type":"SCALAR"
		},
		{
			"bufferView":9,
			"componentType":5126,
			"count":88,
			"max":[
				1,
				1.3298629522323608,
				1.3298630714416504
			],
			"min":[
				-14.318971633911133,
				-2.5760974884033203,
				-2.188390016555786
			],
			"type":"VEC3"
		},
		{
			"bufferView":10,
			"componentType":5126,
			"count":88,
			"type":"VEC3"
		},
		{
			"bufferView":11,
			"componentType":5126,
			"count":88,
			"type":"VEC2"
		},
		{
			"bufferView":12,
			"componentType":5123,
			"count":132,
			"type":"SCALAR"
		},
		{
			"bufferView":13,
			"componentType":5126,
			"count":88,
			"max":[
				1,
				1.3298629522323608,
				1.3298630714416504
			],
			"min":[
				-14.318971633911133,
				-2.5760974884033203,
				-2.188390016555786
			],
			"type":"VEC3"
		},
		{
			"bufferView":14,
			"componentType":5126,
			"count":88,
			"type":"VEC3"
		},
		{
			"bufferView":15,
			"componentType":5126,
			"count":88,
			"type":"VEC2"
		},
		{
			"bufferView":17,
			"componentType":5126,
			"count":32,
			"max":[
				0.08943356573581696,
				0.10622751712799072,
				0.10427030920982361
			],
			"min":[
				-0.08943358063697815,
				-0.10622751712799072,
				-0.10427030920982361
			],
			"type":"VEC3"
		},
		{
			"bufferView":18,
			"componentType":5126,
			"count":32,
			"type":"VEC3"
		},
		{
			"bufferView":19,
			"componentType":5126,
			"count":32,
			"type":"VEC2"
		},
		{
			"bufferView":20,
			"componentType":5123,
			"count":48,
			"type":"SCALAR"
		},
		{
			"bufferView":21,
			"componentType":5126,
			"count":244,
			"max":[
				1.3043313026428223,
				2.6816246509552,
				5.082577228546143
			],
			"min":[
				-1,
				-1.408591866493225,
				-1
			],
			"type":"VEC3"
		},
		{
			"bufferView":22,
			"componentType":5126,
			"count":244,
			"type":"VEC3"
		},
		{
			"bufferView":23,
			"componentType":5126,
			"count":244,
			"type":"VEC2"
		},
		{
			"bufferView":24,
			"componentType":5123,
			"count":480,
			"type":"SCALAR"
		}
	],
	"bufferViews":[
		{
			"buffer":0,
			"byteLength":7356,
			"byteOffset":0,
			"target":34962
		},
		{
			"buffer":0,
			"byteLength":7356,
			"byteOffset":7356,
			"target":34962
		},
		{
			"buffer":0,
			"byteLength":4904,
			"byteOffset":14712,
			"target":34962
		},
		{
			"buffer":0,
			"byteLength":2094,
			"byteOffset":19616,
			"target":34963
		},
		{
			"buffer":0,
			"byteLength":20200,
			"byteOffset":21712
		},
		{
			"buffer":0,
			"byteLength":5472,
			"byteOffset":41912,
			"target":34962
		},
		{
			"buffer":0,
			"byteLength":5472,
			"byteOffset":47384,
			"target":34962
		},
		{
			"buffer":0,
			"byteLength":3648,
			"byteOffset":52856,
			"target":34962
		},
		{
			"buffer":0,
			"byteLength":1380,
			"byteOffset":56504,
			"target":34963
		},
		{
			"buffer":0,
			"byteLength":1056,
			"byteOffset":57884,
			"target":34962
		},
		{
			"buffer":0,
			"byteLength":1056,
			"byteOffset":58940,
			"target":34962
		},
		{
			"buffer":0,
			"byteLength":704,
			"byteOffset":59996,
			"target":34962
		},
		{
			"buffer":0,
			"byteLength":264,
			"byteOffset":60700,
			"target":34963
		},
		{
			"buffer":0,
			"byteLength":1056,
			"byteOffset":60964,
			"target":34962
		},
		{
			"buffer":0,
			"byteLength":1056,
			"byteOffset":62020,
			"target":34962
		},
		{
			"buffer":0,
			"byteLength":704,
			"byteOffset":63076,
			"target":34962
		},
		{
			"buffer":0,
			"byteLength":4153,
			"byteOffset":63780
		},
		{
			"buffer":0,
			"byteLength":384,
			"byteOffset":67936,
			"target":34962
		},
		{
			"buffer":0,
			"byteLength":384,
			"byteOffset":68320,
			"target":34962
		},
		{
			"buffer":0,
			"byteLength":256,
			"byteOffset":68704,
			"target":34962
		},
		{
			"buffer":0,
			"byteLength":96,
			"byteOffset":68960,
			"target":34963
		},
		{
			"buffer":0,
			"byteLength":2928,
			"byteOffset":69056,
			"target":34962
		},
		{
			"buffer":0,
			"byteLength":2928,
			"byteOffset":71984,
			"target":34962
		},
		{
			"buffer":0,
			"byteLength":1952,
			"byteOffset":74912,
			"target":34962
		},
		{
			"buffer":0,
			"byteLength":960,
			"byteOffset":76864,
			"target":34963
		}
	],
	"samplers":[
		{
			"magFilter":9728,
			"minFilter":9984
		},
		{
			"magFilter":9729,
			"minFilter":9987
		}
	],
	"buffers":[
		{
			"byteLength":77824,
			"uri":"data:application/octet-stream;base64,"
		}
	]
}
