{
	"asset":{
		"generator":"Khronos glTF Blender I/O v3.6.27",
		"version":"2.0"
	},
	"extensionsUsed":[
		"KHR_materials_unlit"
	],
	"scene":0,
	"scenes":[
		{
			"name":"Scene",
			"nodes":[
				0,
				1,
				2,
				3,
				4,
				5,
				6,
				7
			]
		}
	],
	"nodes":[
		{
			"mesh":0,
			"name":"Blusa",
			"rotation":[
				0,
				0.7071068286895752,
				0,
				0.7071068286895752
			],
			"scale":[
				0.3807723820209503,
				0.4438316822052002,
				0.39108598232269287
			],
			"translation":[
				0,
				2.6973910331726074,
				-0.005706136114895344
			]
		},
		{
			"mesh":1,
			"name":"Cabe\u00e7a",
			"rotation":[
				0,
				0.7071068286895752,
				-0.7071068286895752,
				3.793077496538899e-08
			],
			"scale":[
				0.2570870518684387,
				0.30735236406326294,
				0.2570870518684387
			],
			"translation":[
				0,
				3.7232449054718018,
				0.005107863340526819
			]
		},
		{
			"mesh":2,
			"name":"M\u00e3o Esquerda",
			"scale":[
				0.02070087194442749,
				0.023775221779942513,
				0.05998402461409569
			],
			"translation":[
				0.1967458873987198,
				3.2541303634643555,
				0.009375214576721191
			]
		},
		{
			"mesh":3,
			"name":"Perna Dir",
			"rotation":[
				0,
				0.7071068286895752,
				0,
				0.7071068286895752
			],
			"scale":[
				0.16217491030693054,
				0.16217491030693054,
				0.15211547911167145
			],
			"translation":[
				0,
				1.1019026041030884,
				-0.004688657820224762
			]
		},
		{
			"mesh":4,
			"name":"Pesco\u00e7o",
			"rotation":[
				0,
				0.7071068286895752,
				0,
				0.7071068286895752
			],
			"scale":[
				0.0523957759141922,
				0.09041471779346466,
				0.08233244717121124
			],
			"translation":[
				4.538297071121633e-05,
				3.4636428356170654,
				0.003677578177303076
			]
		},
		{
			"mesh":5,
			"name":"P\u00e9 Dir",
			"rotation":[
				0,
				0.7071068286895752,
				0,
				0.7071068286895752
			],
			"scale":[
				0.15716153383255005,
				0.10421093553304672,
				0.16495709121227264
			],
			"translation":[
				0.19356048107147217,
				0.22643467783927917,
				-0.11968454718589783
			]
		},
		{
			"mesh":6,
			"name":"P\u00e9 Esq",
			"rotation":[
				-0.7071068286895752,
				0,
				-0.7071068286895752,
				0
			],
			"scale":[
				-0.15716153383255005,
				-0.10421093553304672,
				-0.16495709121227264
			],
			"translation":[
				-0.19356048107147217,
				0.22643467783927917,
				-0.11968454718589783
			]
		},
		{
			"mesh":7,
			"name":"Chapeu",
			"rotation":[
				0.14013950526714325,
				0,
				0,
				0.9901317954063416
			],
			"scale":[
				0.1840904951095581,
				0.13248950242996216,
				0.1803503781557083
			],
			"translation":[
				0,
				3.8611884117126465,
				0.034833136945962906
			]
		}
	],
	"materials":[
		{
			"doubleSided":true,
			"extensions":{
				"KHR_materials_unlit":{}
			},
			"name":"texturadariel",
			"pbrMetallicRoughness":{
				"baseColorTexture":{
					"index":0,
					"texCoord":0
				},
				"metallicFactor":0,
				"roughnessFactor":0.9
			}
		}
	],
	"meshes":[
		{
			"name":"Circle.001",
			"primitives":[
				{
					"attributes":{
						"POSITION":0,
						"NORMAL":1,
						"TEXCOORD_0":2
					},
					"indices":3,
					"material":0
				}
			]
		},
		{
			"name":"Plane.001",
			"primitives":[
				{
					"attributes":{
						"POSITION":4,
						"NORMAL":5,
						"TEXCOORD_0":6
					},
					"indices":7,
					"material":0
				}
			]
		},
		{
			"name":"Cube.010",
			"primitives":[
				{
					"attributes":{
						"POSITION":8,
						"NORMAL":9,
						"TEXCOORD_0":10
					},
					"indices":11,
					"material":0
				}
			]
		},
		{
			"name":"Circle.002",
			"primitives":[
				{
					"attributes":{
						"POSITION":12,
						"NORMAL":13,
						"TEXCOORD_0":14
					},
					"indices":15,
					"material":0
				}
			]
		},
		{
			"name":"Cube.015",
			"primitives":[
				{
					"attributes":{
						"POSITION":16,
						"NORMAL":17,
						"TEXCOORD_0":18
					},
					"indices":19,
					"material":0
				}
			]
		},
		{
			"name":"Cube",
			"primitives":[
				{
					"attributes":{
						"POSITION":20,
						"NORMAL":21,
						"TEXCOORD_0":22
					},
					"indices":23,
					"material":0
				}
			]
		},
		{
			"name":"Cube.023",
			"primitives":[
				{
					"attributes":{
						"POSITION":24,
						"NORMAL":25,
						"TEXCOORD_0":26
					},
					"indices":23,
					"material":0
				}
			]
		},
		{
			"name":"Cylinder",
			"primitives":[
				{
					"attributes":{
						"POSITION":27,
						"NORMAL":28,
						"TEXCOORD_0":29
					},
					"indices":30,
					"material":0
				}
			]
		}
	],
	"textures":[
		{
			"sampler":0,
			"source":0
		}
	],
	"images":[
		{
			"bufferView":4,
			"mimeType":"image/png",
			"name":"textura_delegado"
		}
	],
	"accessors":[
		{
			"bufferView":0,
			"componentType":5126,
			"count":516,
			"max":[
				1.046976923942566,
				1.6095702648162842,
				3.1273016929626465
			],
			"min":[
				-0.8848267197608948,
				-1.7685706615447998,
				-3.1273016929626465
			],
			"type":"VEC3"
		},
		{
			"bufferView":1,
			"componentType":5126,
			"count":516,
			"type":"VEC3"
		},
		{
			"bufferView":2,
			"componentType":5126,
			"count":516,
			"type":"VEC2"
		},
		{
			"bufferView":3,
			"componentType":5123,
			"count":828,
			"type":"SCALAR"
		},
		{
			"bufferView":5,
			"componentType":5126,
			"count":246,
			"max":[
				1.0210273265838623,
				0.8527030348777771,
				1.0889180898666382
			],
			"min":[
				-1.0210273265838623,
				-0.7078562378883362,
				-0.9805036783218384
			],
			"type":"VEC3"
		},
		{
			"bufferView":6,
			"componentType":5126,
			"count":246,
			"type":"VEC3"
		},
		{
			"bufferView":7,
			"componentType":5126,
			"count":246,
			"type":"VEC2"
		},
		{
			"bufferView":8,
			"componentType":5123,
			"count":330,
			"type":"SCALAR"
		},
		{
			"bufferView":9,
			"componentType":5126,
			"count":176,
			"max":[
				62.75435256958008,
				1.5519561767578125,
				1.5660821199417114
			],
			"min":[
				-81.76282501220703,
				-2.35400390625,
				-1.952172875404358
			],
			"type":"VEC3"
		},
		{
			"bufferView":10,
			"componentType":5126,
			"count":176,
			"type":"VEC3"
		},
		{
			"bufferView":11,
			"componentType":5126,
			"count":176,
			"type":"VEC2"
		},
		{
			"bufferView":12,
			"componentType":5123,
			"count":264,
			"type":"SCALAR"
		},
		{
			"bufferView":13,
			"componentType":5126,
			"count":400,
			"max":[
				1.2960424423217773,
				5.065258026123047,
				2.440195083618164
			],
			"min":[
				-1.2960426807403564,
				-4.798648357391357,
				-2.440195083618164
			],
			"type":"VEC3"
		},
		{
			"bufferView":14,
			"componentType":5126,
			"count":400,
			"type":"VEC3"
		},
		{
			"bufferView":15,
			"componentType":5126,
			"count":400,
			"type":"VEC2"
		},
		{
			"bufferView":16,
			"componentType":5123,
			"count":612,
			"type":"SCALAR"
		},
		{
			"bufferView":17,
			"componentType":5126,
			"count":48,
			"max":[
				1.5735572576522827,
				1.0180455446243286,
				0.9970849752426147
			],
			"min":[
				-1.5093592405319214,
				-0.7926005721092224,
				-1.0029150247573853
			],
			"type":"VEC3"
		},
		{
			"bufferView":18,
			"componentType":5126,
			"count":48,
			"type":"VEC3"
		},
		{
			"bufferView":19,
			"componentType":5126,
			"count":48,
			"type":"VEC2"
		},
		{
			"bufferView":20,
			"componentType":5123,
			"count":84,
			"type":"SCALAR"
		},
		{
			"bufferView":21,
			"componentType":5126,
			"count":34,
			"max":[
				1.869381070137024,
				1.0320205688476562,
				0.7130908966064453
			],
			"min":[
				-1.5109938383102417,
				-0.8013626337051392,
				-0.7130908966064453
			],
			"type":"VEC3"
		},
		{
			"bufferView":22,
			"componentType":5126,
			"count":34,
			"type":"VEC3"
		},
		{
			"bufferView":23,
			"componentType":5126,
			"count":34,
			"type":"VEC2"
		},
		{
			"bufferView":24,
			"componentType":5123,
			"count":60,
			"type":"SCALAR"
		},
		{
			"bufferView":25,
			"componentType":5126,
			"count":34,
			"max":[
				1.869381070137024,
				1.0320205688476562,
				0.7130908966064453
			],
			"min":[
				-1.5109938383102417,
				-0.8013626337051392,
				-0.7130908966064453
			],
			"type":"VEC3"
		},
		{
			"bufferView":26,
			"componentType":5126,
			"count":34,
			"type":"VEC3"
		},
		{
			"bufferView":27,
			"componentType":5126,
			"count":34,
			"type":"VEC2"
		},
		{
			"bufferView":28,
			"componentType":5126,
			"count":120,
			"max":[
				1.6233654022216797,
				0.9999998211860657,
				1.5426716804504395
			],
			"min":[
				-1.6233654022216797,
				-0.9958996176719666,
				-2.085686683654785
			],
			"type":"VEC3"
		},
		{
			"bufferView":29,
			"componentType":5126,
			"count":120,
			"type":"VEC3"
		},
		{
			"bufferView":30,
			"componentType":5126,
			"count":120,
			"type":"VEC2"
		},
		{
			"bufferView":31,
			"componentType":5123,
			"count":186,
			"type":"SCALAR"
		}
	],
	"bufferViews":[
		{
			"buffer":0,
			"byteLength":6192,
			"byteOffset":0,
			"target":34962
		},
		{
			"buffer":0,
			"byteLength":6192,
			"byteOffset":6192,
			"target":34962
		},
		{
			"buffer":0,
			"byteLength":4128,
			"byteOffset":12384,
			"target":34962
		},
		{
			"buffer":0,
			"byteLength":1656,
			"byteOffset":16512,
			"target":34963
		},
		{
			"buffer":0,
			"byteLength":26311,
			"byteOffset":18168
		},
		{
			"buffer":0,
			"byteLength":2952,
			"byteOffset":44480,
			"target":34962
		},
		{
			"buffer":0,
			"byteLength":2952,
			"byteOffset":47432,
			"target":34962
		},
		{
			"buffer":0,
			"byteLength":1968,
			"byteOffset":50384,
			"target":34962
		},
		{
			"buffer":0,
			"byteLength":660,
			"byteOffset":52352,
			"target":34963
		},
		{
			"buffer":0,
			"byteLength":2112,
			"byteOffset":53012,
			"target":34962
		},
		{
			"buffer":0,
			"byteLength":2112,
			"byteOffset":55124,
			"target":34962
		},
		{
			"buffer":0,
			"byteLength":1408,
			"byteOffset":57236,
			"target":34962
		},
		{
			"buffer":0,
			"byteLength":528,
			"byteOffset":58644,
			"target":34963
		},
		{
			"buffer":0,
			"byteLength":4800,
			"byteOffset":59172,
			"target":34962
		},
		{
			"buffer":0,
			"byteLength":4800,
			"byteOffset":63972,
			"target":34962
		},
		{
			"buffer":0,
			"byteLength":3200,
			"byteOffset":68772,
			"target":34962
		},
		{
			"buffer":0,
			"byteLength":1224,
			"byteOffset":71972,
			"target":34963
		},
		{
			"buffer":0,
			"byteLength":576,
			"byteOffset":73196,
			"target":34962
		},
		{
			"buffer":0,
			"byteLength":576,
			"byteOffset":73772,
			"target":34962
		},
		{
			"buffer":0,
			"byteLength":384,
			"byteOffset":74348,
			"target":34962
		},
		{
			"buffer":0,
			"byteLength":168,
			"byteOffset":74732,
			"target":34963
		},
		{
			"buffer":0,
			"byteLength":408,
			"byteOffset":74900,
			"target":34962
		},
		{
			"buffer":0,
			"byteLength":408,
			"byteOffset":75308,
			"target":34962
		},
		{
			"buffer":0,
			"byteLength":272,
			"byteOffset":75716,
			"target":34962
		},
		{
			"buffer":0,
			"byteLength":120,
			"byteOffset":75988,
			"target":34963
		},
		{
			"buffer":0,
			"byteLength":408,
			"byteOffset":76108,
			"target":34962
		},
		{
			"buffer":0,
			"byteLength":408,
			"byteOffset":76516,
			"target":34962
		},
		{
			"buffer":0,
			"byteLength":272,
			"byteOffset":76924,
			"target":34962
		},
		{
			"buffer":0,
			"byteLength":1440,
			"byteOffset":77196,
			"target":34962
		},
		{
			"buffer":0,
			"byteLength":1440,
			"byteOffset":78636,
			"target":34962
		},
		{
			"buffer":0,
			"byteLength":960,
			"byteOffset":80076,
			"target":34962
		},
		{
			"buffer":0,
			"byteLength":372,
			"byteOffset":81036,
			"target":34963
		}
	],
	"samplers":[
		{
			"magFilter":9728,
			"minFilter":9984
		}
	],
	"buffers":[
		{
			"byteLength":81408,
			"uri":"data:application/octet-stream;base64,"
		}
	]
}
